<?xml version="1.0" encoding="UTF-8"?>
<svg width="511px" height="331px" viewBox="0 0 511 331" version="1.1" xmlns="http://www.w3.org/2000/svg" xmlns:xlink="http://www.w3.org/1999/xlink">
    <!-- Generator: Sketch 49.3 (51167) - http://www.bohemiancoding.com/sketch -->
    <title>Page 1</title>
    <desc>Created with Sketch.</desc>
    <defs>
        <polygon id="path-1" points="0.0932 0.4416 101.232 0.4416 101.232 36.0076 0.0932 36.0076"></polygon>
        <polygon id="path-3" points="0.4965 0.6042 69.232 0.6042 69.232 36.1702 0.4965 36.1702"></polygon>
        <polygon id="path-5" points="0.1073 0.2243 31.232 0.2243 31.232 7.0003 0.1073 7.0003"></polygon>
        <polygon id="path-7" points="0.1071 0.1644 31.232 0.1644 31.232 3.7864 0.1071 3.7864"></polygon>
        <polygon id="path-9" points="0.077 0.0485 63.232 0.0485 63.232 15.4895 0.077 15.4895"></polygon>
        <polygon id="path-11" points="0.7767 0.9597 71.232 0.9597 71.232 36.5257 0.7767 36.5257"></polygon>
        <polygon id="path-13" points="0.7155 0.8826 60.232 0.8826 60.232 7.3216 0.7155 7.3216"></polygon>
        <polygon id="path-15" points="0.6535 0.0398 12.232 0.0398 12.232 6.4788 0.6535 6.4788"></polygon>
        <polygon id="path-17" points="0.232 0.1889 28.2899 0.1889 28.2899 64.1199 0.232 64.1199"></polygon>
    </defs>
    <g id="Page-1" stroke="none" stroke-width="1" fill="none" fill-rule="evenodd">
        <g>
            <polygon id="Fill-1" fill="#9CD7FF" points="0.497 330.011 510.232 330.011 510.232 0.442 0.497 0.442"></polygon>
            <g id="Group-385" transform="translate(0.000000, 5.655000)">
                <g id="Group-113" transform="translate(82.000000, 0.000000)" fill="#6DC6F7">
                    <path d="M317.2919,164.8411 L315.6589,165.9321 C314.8789,166.4531 314.9559,167.6231 315.7969,168.0381 L317.5579,168.9061 C318.3989,169.3211 319.3739,168.6701 319.3129,167.7341 L319.1849,165.7751 C319.1239,164.8391 318.0719,164.3201 317.2919,164.8411" id="Fill-2"></path>
                    <path d="M288.3934,157.2175 L286.4764,157.6395 C285.5604,157.8415 285.2054,158.9595 285.8384,159.6515 L287.1634,161.1015 C287.7954,161.7935 288.9414,161.5415 289.2244,160.6475 L289.8174,158.7755 C290.1004,157.8815 289.3094,157.0155 288.3934,157.2175" id="Fill-4"></path>
                    <path d="M340.0507,133.4539 L338.2307,132.7189 C337.3607,132.3689 336.4367,133.0909 336.5677,134.0189 L336.8417,135.9639 C336.9727,136.8919 338.0607,137.3309 338.7987,136.7529 L340.3457,135.5439 C341.0847,134.9659 340.9207,133.8049 340.0507,133.4539" id="Fill-6"></path>
                    <path d="M328.3104,113.2674 L326.6284,114.2814 C325.8264,114.7664 325.8484,115.9384 326.6694,116.3924 L328.3884,117.3404 C329.2094,117.7944 330.2134,117.1884 330.1954,116.2504 L330.1584,114.2884 C330.1404,113.3504 329.1144,112.7834 328.3104,113.2674" id="Fill-8"></path>
                    <path d="M310.7509,105.9485 L308.8059,106.2175 C307.8769,106.3455 307.4349,107.4315 308.0109,108.1725 L309.2159,109.7225 C309.7919,110.4625 310.9529,110.3025 311.3069,109.4335 L312.0469,107.6145 C312.3989,106.7455 311.6799,105.8205 310.7509,105.9485" id="Fill-10"></path>
                    <path d="M324.2596,84.1448 L323.0256,85.6718 C322.4366,86.4018 322.8576,87.4958 323.7836,87.6418 L325.7236,87.9468 C326.6506,88.0918 327.3876,87.1798 327.0506,86.3048 L326.3446,84.4728 C326.0076,83.5968 324.8486,83.4148 324.2596,84.1448" id="Fill-12"></path>
                    <path d="M301.4833,64.8919 L299.5933,65.4279 C298.6913,65.6839 298.4053,66.8209 299.0783,67.4739 L300.4863,68.8419 C301.1593,69.4959 302.2873,69.1759 302.5163,68.2659 L302.9973,66.3619 C303.2263,65.4529 302.3853,64.6359 301.4833,64.8919" id="Fill-14"></path>
                    <path d="M294.3964,51.4427 L292.7304,52.4807 C291.9334,52.9767 291.9724,54.1487 292.8004,54.5897 L294.5334,55.5147 C295.3604,55.9557 296.3554,55.3367 296.3244,54.3987 L296.2584,52.4367 C296.2274,51.4987 295.1934,50.9467 294.3964,51.4427" id="Fill-16"></path>
                    <path d="M260.3212,57.1477 L259.8492,59.0537 C259.6252,59.9647 260.4702,60.7767 261.3712,60.5167 L263.2582,59.9717 C264.1592,59.7107 264.4402,58.5727 263.7632,57.9217 L262.3482,56.5617 C261.6722,55.9117 260.5462,56.2367 260.3212,57.1477" id="Fill-18"></path>
                    <path d="M257.704,26.6648 L256.306,28.0428 C255.639,28.7018 255.933,29.8368 256.838,30.0858 L258.731,30.6068 C259.636,30.8558 260.471,30.0328 260.234,29.1248 L259.739,27.2248 C259.502,26.3168 258.372,26.0058 257.704,26.6648" id="Fill-20"></path>
                    <path d="M235.0965,27.6394 L235.4565,29.5694 C235.6295,30.4914 236.7365,30.8814 237.4485,30.2704 L238.9395,28.9934 C239.6515,28.3834 239.4355,27.2304 238.5505,26.9184 L236.6995,26.2664 C235.8145,25.9544 234.9235,26.7174 235.0965,27.6394" id="Fill-22"></path>
                    <path d="M201.2909,51.8147 L201.9829,53.6517 C202.3139,54.5297 203.4719,54.7207 204.0659,53.9947 L205.3119,52.4767 C205.9059,51.7517 205.4919,50.6537 204.5659,50.5017 L202.6299,50.1827 C201.7039,50.0307 200.9609,50.9377 201.2909,51.8147" id="Fill-24"></path>
                    <path d="M199.0575,17.7893 L199.7465,19.6273 C200.0775,20.5053 201.2335,20.6983 201.8285,19.9733 L203.0765,18.4563 C203.6725,17.7323 203.2605,16.6343 202.3345,16.4803 L200.3985,16.1593 C199.4725,16.0053 198.7285,16.9113 199.0575,17.7893" id="Fill-26"></path>
                    <path d="M178.995,50.1145 L179.629,51.9725 C179.931,52.8615 181.081,53.0885 181.699,52.3825 L182.992,50.9055 C183.609,50.1995 183.231,49.0895 182.311,48.9075 L180.386,48.5265 C179.466,48.3435 178.693,49.2265 178.995,50.1145" id="Fill-28"></path>
                    <path d="M163.8983,1.7713 L164.5413,3.6263 C164.8473,4.5133 165.9993,4.7343 166.6133,4.0253 L167.8983,2.5423 C168.5123,1.8333 168.1283,0.7253 167.2083,0.5473 L165.2803,0.1763 C164.3593,-0.0007 163.5913,0.8853 163.8983,1.7713" id="Fill-30"></path>
                    <path d="M143.453,8.8069 L143.774,10.7439 C143.928,11.6689 145.025,12.0809 145.75,11.4859 L147.267,10.2399 C147.992,9.6439 147.801,8.4869 146.922,8.1579 L145.084,7.4669 C144.206,7.1369 143.3,7.8809 143.453,8.8069" id="Fill-32"></path>
                    <path d="M124.9549,17.8455 L126.5799,18.9485 C127.3549,19.4745 128.4109,18.9645 128.4789,18.0285 L128.6219,16.0705 C128.6899,15.1345 127.7199,14.4765 126.8759,14.8855 L125.1079,15.7405 C124.2649,16.1495 124.1789,17.3185 124.9549,17.8455" id="Fill-34"></path>
                    <path d="M106.9608,19.6785 L108.6728,20.6415 C109.4898,21.1015 110.4988,20.5035 110.4878,19.5655 L110.4668,17.6025 C110.4558,16.6645 109.4338,16.0895 108.6268,16.5675 L106.9378,17.5685 C106.1308,18.0465 106.1438,19.2195 106.9608,19.6785" id="Fill-36"></path>
                    <path d="M114.4754,71.5955 L115.3144,73.3705 C115.7154,74.2185 116.8834,74.3145 117.4174,73.5435 L118.5364,71.9295 C119.0704,71.1585 118.5694,70.0985 117.6344,70.0215 L115.6774,69.8605 C114.7434,69.7835 114.0754,70.7475 114.4754,71.5955" id="Fill-38"></path>
                    <path d="M83.0301,37.4871 L83.6921,39.3351 C84.0091,40.2181 85.1621,40.4281 85.7691,39.7131 L87.0391,38.2151 C87.6451,37.4991 87.2501,36.3961 86.3271,36.2281 L84.3951,35.8771 C83.4721,35.7101 82.7141,36.6041 83.0301,37.4871" id="Fill-40"></path>
                    <path d="M64.744,39.5686 L66.578,40.2716 C67.454,40.6076 68.364,39.8686 68.217,38.9426 L67.909,37.0036 C67.762,36.0766 66.667,35.6566 65.938,36.2476 L64.413,37.4846 C63.684,38.0746 63.868,39.2336 64.744,39.5686" id="Fill-42"></path>
                    <path d="M86.8065,92.7078 L88.1545,94.1358 C88.7975,94.8178 89.9395,94.5468 90.2075,93.6478 L90.7695,91.7668 C91.0385,90.8678 90.2335,90.0158 89.3215,90.2318 L87.4105,90.6858 C86.4975,90.9028 86.1615,92.0258 86.8065,92.7078" id="Fill-44"></path>
                    <path d="M68.3875,95.427 L69.3335,97.148 C69.7845,97.969 70.9575,97.994 71.4435,97.192 L72.4605,95.513 C72.9475,94.711 72.3825,93.683 71.4445,93.663 L69.4815,93.622 C68.5435,93.602 67.9365,94.605 68.3875,95.427" id="Fill-46"></path>
                    <path d="M31.9286,95.1746 L33.7996,95.7706 C34.6936,96.0546 35.5606,95.2646 35.3596,94.3486 L34.9396,92.4306 C34.7396,91.5136 33.6216,91.1586 32.9286,91.7906 L31.4776,93.1126 C30.7836,93.7446 31.0346,94.8906 31.9286,95.1746" id="Fill-48"></path>
                    <path d="M31.0506,110.4226 L32.9916,110.7156 C33.9186,110.8566 34.6506,109.9406 34.3086,109.0666 L33.5916,107.2386 C33.2496,106.3656 32.0906,106.1896 31.5046,106.9226 L30.2796,108.4576 C29.6956,109.1906 30.1226,110.2826 31.0506,110.4226" id="Fill-50"></path>
                    <path d="M10.327,132.1282 L12.28,131.9302 C13.214,131.8362 13.694,130.7672 13.146,130.0052 L11.998,128.4132 C11.45,127.6512 10.283,127.7702 9.898,128.6252 L9.093,130.4162 C8.708,131.2722 9.393,132.2232 10.327,132.1282" id="Fill-52"></path>
                    <path d="M50.5174,155.0608 L52.3104,155.8618 C53.1664,156.2438 54.1164,155.5558 54.0194,154.6228 L53.8164,152.6698 C53.7194,151.7368 52.6494,151.2588 51.8894,151.8098 L50.2994,152.9608 C49.5394,153.5118 49.6614,154.6778 50.5174,155.0608" id="Fill-54"></path>
                    <path d="M3.1278,176.9924 L4.3188,175.4314 C4.8888,174.6864 4.4368,173.6044 3.5068,173.4844 L1.5598,173.2324 C0.6288,173.1124 -0.0832,174.0444 0.2778,174.9094 L1.0338,176.7224 C1.3958,177.5884 2.5588,177.7384 3.1278,176.9924" id="Fill-56"></path>
                    <path d="M41.452,190.1023 L43.414,190.0123 C44.35,189.9703 44.89,188.9283 44.385,188.1383 L43.326,186.4843 C42.821,185.6943 41.649,185.7483 41.218,186.5813 L40.314,188.3243 C39.884,189.1573 40.515,190.1443 41.452,190.1023" id="Fill-58"></path>
                    <path d="M23.8895,216.9661 L25.0005,215.3471 C25.5315,214.5741 25.0265,213.5161 24.0905,213.4431 L22.1335,213.2901 C21.1985,213.2171 20.5355,214.1841 20.9395,215.0301 L21.7855,216.8021 C22.1895,217.6481 23.3585,217.7391 23.8895,216.9661" id="Fill-60"></path>
                    <path d="M17.2059,242.011 L19.1689,242.064 C20.1069,242.088 20.7199,241.089 20.2719,240.265 L19.3369,238.538 C18.8899,237.714 17.7179,237.683 17.2269,238.483 L16.1999,240.156 C15.7099,240.955 16.2689,241.987 17.2059,242.011" id="Fill-62"></path>
                    <path d="M59.6815,239.9505 L61.4995,239.2075 C62.3685,238.8525 62.5275,237.6915 61.7855,237.1165 L60.2335,235.9135 C59.4925,235.3395 58.4075,235.7825 58.2805,236.7115 L58.0135,238.6565 C57.8865,239.5865 58.8135,240.3045 59.6815,239.9505" id="Fill-64"></path>
                    <path d="M36.6082,280.2835 L36.8962,278.3415 C37.0352,277.4135 36.1162,276.6835 35.2442,277.0285 L33.4182,277.7505 C32.5452,278.0955 32.3732,279.2545 33.1072,279.8375 L34.6452,281.0585 C35.3792,281.6415 36.4702,281.2115 36.6082,280.2835" id="Fill-66"></path>
                    <path d="M64.5829,285.7034 L65.8559,284.2084 C66.4649,283.4944 66.0709,282.3894 65.1489,282.2204 L63.2179,281.8644 C62.2959,281.6944 61.5349,282.5884 61.8499,283.4724 L62.5079,285.3214 C62.8219,286.2054 63.9759,286.4174 64.5829,285.7034" id="Fill-68"></path>
                    <path d="M62.5565,305.3421 L63.8145,303.8351 C64.4145,303.1141 64.0105,302.0141 63.0865,301.8541 L61.1525,301.5181 C60.2275,301.3581 59.4765,302.2581 59.7995,303.1391 L60.4765,304.9821 C60.7995,305.8631 61.9545,306.0631 62.5565,305.3421" id="Fill-70"></path>
                    <path d="M109.4207,279.1018 L110.3237,277.3588 C110.7567,276.5268 110.1247,275.5388 109.1887,275.5808 L107.2267,275.6688 C106.2887,275.7108 105.7497,276.7518 106.2547,277.5418 L107.3127,279.1968 C107.8167,279.9878 108.9877,279.9348 109.4207,279.1018" id="Fill-72"></path>
                    <path d="M118.0653,294.0999 L117.8413,292.1489 C117.7353,291.2169 116.6603,290.7499 115.9063,291.3079 L114.3283,292.4769 C113.5743,293.0349 113.7083,294.1999 114.5683,294.5739 L116.3693,295.3559 C117.2293,295.7299 118.1713,295.0319 118.0653,294.0999" id="Fill-74"></path>
                    <path d="M134.7342,291.509 L135.7732,289.843 C136.2692,289.047 135.7182,288.012 134.7812,287.981 L132.8182,287.913 C131.8802,287.882 131.2602,288.876 131.7022,289.704 L132.6252,291.438 C133.0662,292.265 134.2382,292.305 134.7342,291.509" id="Fill-76"></path>
                    <path d="M145.1883,318.7493 L144.5013,316.9103 C144.1723,316.0313 143.0153,315.8383 142.4183,316.5613 L141.1703,318.0773 C140.5743,318.8013 140.9843,319.8993 141.9103,320.0543 L143.8463,320.3783 C144.7713,320.5323 145.5173,319.6283 145.1883,318.7493" id="Fill-78"></path>
                    <path d="M173.245,287.9192 L173.207,285.9562 C173.188,285.0192 172.162,284.4522 171.359,284.9372 L169.678,285.9512 C168.875,286.4372 168.897,287.6082 169.719,288.0622 L171.438,289.0102 C172.26,289.4632 173.264,288.8572 173.245,287.9192" id="Fill-83"></path>
                    <path d="M186.9491,297.844 L185.6231,296.396 C184.9901,295.704 183.8451,295.957 183.5621,296.852 L182.9701,298.724 C182.6881,299.618 183.4801,300.484 184.3961,300.281 L186.3131,299.857 C187.2291,299.655 187.5821,298.536 186.9491,297.844" id="Fill-85"></path>
                    <path d="M203.7039,320.7981 L202.7079,319.1061 C202.2309,318.2981 201.0579,318.3081 200.5969,319.1241 L199.6309,320.8331 C199.1689,321.6501 199.7639,322.6601 200.7019,322.6521 L202.6649,322.6351 C203.6029,322.6261 204.1809,321.6061 203.7039,320.7981" id="Fill-87"></path>
                    <path d="M218.9354,291.2747 L217.6434,289.7957 C217.0264,289.0887 215.8754,289.3157 215.5734,290.2037 L214.9374,292.0607 C214.6344,292.9487 215.4054,293.8317 216.3264,293.6507 L218.2524,293.2717 C219.1724,293.0907 219.5524,291.9807 218.9354,291.2747" id="Fill-89"></path>
                    <path d="M245.0477,318.0823 L244.0337,316.4003 C243.5497,315.5983 242.3777,315.6193 241.9237,316.4403 L240.9747,318.1593 C240.5207,318.9803 241.1257,319.9843 242.0647,319.9673 L244.0267,319.9303 C244.9647,319.9123 245.5317,318.8863 245.0477,318.0823" id="Fill-91"></path>
                    <path d="M250.0927,284.9827 L248.1887,284.5037 C247.2787,284.2757 246.4617,285.1177 246.7187,286.0197 L247.2567,287.9087 C247.5137,288.8107 248.6507,289.0957 249.3037,288.4227 L250.6697,287.0127 C251.3227,286.3387 251.0017,285.2117 250.0927,284.9827" id="Fill-93"></path>
                    <path d="M274.4188,287.9231 L273.2898,286.3171 C272.7498,285.5501 271.5828,285.6531 271.1878,286.5051 L270.3608,288.2851 C269.9658,289.1371 270.6408,290.0961 271.5748,290.0131 L273.5298,289.8381 C274.4648,289.7541 274.9578,288.6911 274.4188,287.9231" id="Fill-95"></path>
                    <path d="M269.9735,258.7219 L268.4935,257.4319 C267.7855,256.8169 266.6765,257.1979 266.4955,258.1179 L266.1195,260.0449 C265.9405,260.9649 266.8255,261.7359 267.7115,261.4309 L269.5695,260.7929 C270.4555,260.4889 270.6805,259.3369 269.9735,258.7219" id="Fill-97"></path>
                    <path d="M305.0106,272.0872 L304.0826,270.3572 C303.6406,269.5292 302.4686,269.4922 301.9736,270.2892 L300.9386,271.9572 C300.4436,272.7542 300.9966,273.7872 301.9346,273.8172 L303.8976,273.8802 C304.8346,273.9102 305.4526,272.9142 305.0106,272.0872" id="Fill-99"></path>
                    <path d="M287.5409,236.9592 L285.6589,236.3972 C284.7609,236.1302 283.9079,236.9362 284.1259,237.8482 L284.5809,239.7582 C284.7979,240.6712 285.9219,241.0062 286.6039,240.3612 L288.0299,239.0122 C288.7119,238.3672 288.4399,237.2272 287.5409,236.9592" id="Fill-101"></path>
                    <path d="M298.4286,231.0696 L297.1576,229.5726 C296.5516,228.8576 295.3986,229.0676 295.0816,229.9506 L294.4206,231.7986 C294.1046,232.6826 294.8636,233.5766 295.7856,233.4086 L297.7176,233.0566 C298.6406,232.8886 299.0356,231.7846 298.4286,231.0696" id="Fill-103"></path>
                    <path d="M331.7089,226.0672 L329.7489,226.1802 C328.8129,226.2342 328.2849,227.2812 328.7999,228.0662 L329.8779,229.7062 C330.3939,230.4902 331.5629,230.4232 331.9849,229.5852 L332.8669,227.8312 C333.2889,226.9932 332.6459,226.0132 331.7089,226.0672" id="Fill-105"></path>
                    <path d="M296.0887,197.3406 L294.2537,196.6416 C293.3777,196.3076 292.4687,197.0476 292.6167,197.9736 L292.9287,199.9116 C293.0777,200.8386 294.1737,201.2556 294.9017,200.6636 L296.4237,199.4246 C297.1507,198.8326 296.9657,197.6746 296.0887,197.3406" id="Fill-107"></path>
                    <path d="M338.5702,190.1712 L336.6182,189.9582 C335.6852,189.8572 334.9932,190.8032 335.3712,191.6612 L336.1632,193.4582 C336.5422,194.3162 337.7072,194.4432 338.2612,193.6872 L339.4222,192.1022 C339.9752,191.3452 339.5032,190.2732 338.5702,190.1712" id="Fill-109"></path>
                    <path d="M339.7157,170.3811 L338.1157,171.5191 C337.3517,172.0631 337.4627,173.2301 338.3157,173.6201 L340.1007,174.4371 C340.9537,174.8271 341.9087,174.1481 341.8207,173.2141 L341.6357,171.2591 C341.5467,170.3251 340.4807,169.8381 339.7157,170.3811" id="Fill-111"></path>
                </g>
                <g id="Group-144" transform="translate(409.000000, 15.000000)">
                    <g id="Group-116" transform="translate(0.000000, 50.000000)">
                        <mask id="mask-2" fill="white">
                            <use xlink:href="#path-1"></use>
                        </mask>
                        <g id="Clip-115"></g>
                        <path d="M123.2802,36.0076 L5.7222,36.0076 C2.6272,36.0076 0.0932,33.4746 0.0932,30.3786 L0.0932,6.0706 C0.0932,2.9746 2.6272,0.4416 5.7222,0.4416 L123.2802,0.4416 C126.3762,0.4416 128.9092,2.9746 128.9092,6.0706 L128.9092,30.3786 C128.9092,33.4746 126.3762,36.0076 123.2802,36.0076" id="Fill-114" fill="#B1E1FC" mask="url(#mask-2)"></path>
                    </g>
                    <g id="Group-119" transform="translate(32.000000, 102.000000)">
                        <mask id="mask-4" fill="white">
                            <use xlink:href="#path-3"></use>
                        </mask>
                        <g id="Clip-118"></g>
                        <path d="M123.6835,36.1702 L6.1255,36.1702 C3.0305,36.1702 0.4965,33.6372 0.4965,30.5412 L0.4965,6.2332 C0.4965,3.1372 3.0305,0.6042 6.1255,0.6042 L123.6835,0.6042 C126.7805,0.6042 129.3125,3.1372 129.3125,6.2332 L129.3125,30.5412 C129.3125,33.6372 126.7805,36.1702 123.6835,36.1702" id="Fill-117" fill="#B1E1FC" mask="url(#mask-4)"></path>
                    </g>
                    <path d="M31.6718,69.1389 C31.6718,75.5039 26.5118,80.6629 20.1468,80.6629 C13.7818,80.6629 8.6218,75.5039 8.6218,69.1389 C8.6218,62.7739 13.7818,57.6149 20.1468,57.6149 C26.5118,57.6149 31.6718,62.7739 31.6718,69.1389" id="Fill-120" fill="#92D6FC"></path>
                    <path d="M63.0594,120.387 C63.0594,126.752 57.8994,131.912 51.5354,131.912 C45.1694,131.912 40.0094,126.752 40.0094,120.387 C40.0094,114.022 45.1694,108.863 51.5354,108.863 C57.8994,108.863 63.0594,114.022 63.0594,120.387" id="Fill-122" fill="#92D6FC"></path>
                    <g id="Group-126" transform="translate(70.000000, 112.000000)">
                        <mask id="mask-6" fill="white">
                            <use xlink:href="#path-5"></use>
                        </mask>
                        <g id="Clip-125"></g>
                        <path d="M76.8563,7.0003 L2.1903,7.0003 C1.0403,7.0003 0.1073,6.0673 0.1073,4.9173 L0.1073,2.3083 C0.1073,1.1573 1.0403,0.2243 2.1903,0.2243 L76.8563,0.2243 C78.0063,0.2243 78.9393,1.1573 78.9393,2.3083 L78.9393,4.9173 C78.9393,6.0673 78.0063,7.0003 76.8563,7.0003" id="Fill-124" fill="#CAEFFF" mask="url(#mask-6)"></path>
                    </g>
                    <g id="Group-129" transform="translate(70.000000, 123.000000)">
                        <mask id="mask-8" fill="white">
                            <use xlink:href="#path-7"></use>
                        </mask>
                        <g id="Clip-128"></g>
                        <path d="M77.1581,3.7864 L1.8871,3.7864 C0.9041,3.7864 0.1071,2.9894 0.1071,2.0054 L0.1071,1.9454 C0.1071,0.9614 0.9041,0.1644 1.8871,0.1644 L77.1581,0.1644 C78.1421,0.1644 78.9391,0.9614 78.9391,1.9454 L78.9391,2.0054 C78.9391,2.9894 78.1421,3.7864 77.1581,3.7864" id="Fill-127" fill="#CAEFFF" mask="url(#mask-8)"></path>
                    </g>
                    <g id="Group-132" transform="translate(38.000000, 61.000000)">
                        <mask id="mask-10" fill="white">
                            <use xlink:href="#path-9"></use>
                        </mask>
                        <g id="Clip-131"></g>
                        <path d="M76.826,15.4895 L2.16,15.4895 C1.01,15.4895 0.077,14.5565 0.077,13.4065 L0.077,2.1315 C0.077,0.9815 1.01,0.0485 2.16,0.0485 L76.826,0.0485 C77.976,0.0485 78.909,0.9815 78.909,2.1315 L78.909,13.4065 C78.909,14.5565 77.976,15.4895 76.826,15.4895" id="Fill-130" fill="#CAEFFF" mask="url(#mask-10)"></path>
                    </g>
                    <g id="Group-135" transform="translate(30.000000, 0.000000)">
                        <mask id="mask-12" fill="white">
                            <use xlink:href="#path-11"></use>
                        </mask>
                        <g id="Clip-134"></g>
                        <path d="M123.9637,36.5257 L6.4047,36.5257 C3.3097,36.5257 0.7767,33.9927 0.7767,30.8977 L0.7767,6.5887 C0.7767,3.4927 3.3097,0.9597 6.4047,0.9597 L123.9637,0.9597 C127.0597,0.9597 129.5927,3.4927 129.5927,6.5887 L129.5927,30.8977 C129.5927,33.9927 127.0597,36.5257 123.9637,36.5257" id="Fill-133" fill="#B1E1FC" mask="url(#mask-12)"></path>
                    </g>
                    <g id="Group-138" transform="translate(41.000000, 10.000000)">
                        <mask id="mask-14" fill="white">
                            <use xlink:href="#path-13"></use>
                        </mask>
                        <g id="Clip-137"></g>
                        <path d="M80.6815,7.3216 L2.7995,7.3216 C1.6485,7.3216 0.7155,6.3886 0.7155,5.2386 L0.7155,2.9666 C0.7155,1.8156 1.6485,0.8826 2.7995,0.8826 L80.6815,0.8826 C81.8315,0.8826 82.7645,1.8156 82.7645,2.9666 L82.7645,5.2386 C82.7645,6.3886 81.8315,7.3216 80.6815,7.3216" id="Fill-136" fill="#CAEFFF" mask="url(#mask-14)"></path>
                    </g>
                    <path d="M82.785,27.4788 L43.8,27.4788 C42.648,27.4788 41.716,26.5458 41.716,25.3958 L41.716,23.1228 C41.716,21.9728 42.648,21.0398 43.8,21.0398 L82.785,21.0398 C83.935,21.0398 84.868,21.9728 84.868,23.1228 L84.868,25.3958 C84.868,26.5458 83.935,27.4788 82.785,27.4788" id="Fill-139" fill="#CAEFFF"></path>
                    <g id="Group-143" transform="translate(89.000000, 21.000000)">
                        <mask id="mask-16" fill="white">
                            <use xlink:href="#path-15"></use>
                        </mask>
                        <g id="Clip-142"></g>
                        <path d="M32.6815,6.4788 L2.7365,6.4788 C1.5855,6.4788 0.6535,5.5458 0.6535,4.3958 L0.6535,2.1228 C0.6535,0.9728 1.5855,0.0398 2.7365,0.0398 L32.6815,0.0398 C33.8315,0.0398 34.7645,0.9728 34.7645,2.1228 L34.7645,4.3958 C34.7645,5.5458 33.8315,6.4788 32.6815,6.4788" id="Fill-141" fill="#CAEFFF" mask="url(#mask-16)"></path>
                    </g>
                </g>
                <g id="Group-154" transform="translate(0.000000, 1.000000)">
                    <path d="M88.7498,139.804 L62.4348,139.804 C55.8348,139.804 50.4348,134.404 50.4348,127.804 L50.4348,101.489 C50.4348,94.888 55.8348,89.489 62.4348,89.489 L88.7498,89.489 C95.3508,89.489 100.7498,94.888 100.7498,101.489 L100.7498,127.804 C100.7498,134.404 95.3508,139.804 88.7498,139.804" id="Fill-145" fill="#B1E1FC"></path>
                    <path d="M105.6092,94.6004 C105.6092,99.9474 101.2742,104.2824 95.9272,104.2824 C90.5802,104.2824 86.2462,99.9474 86.2462,94.6004 C86.2462,89.2534 90.5802,84.9184 95.9272,84.9184 C101.2742,84.9184 105.6092,89.2534 105.6092,94.6004" id="Fill-147" fill="#74CFF7"></path>
                    <g id="Group-151" transform="translate(0.000000, 4.000000)">
                        <mask id="mask-18" fill="white">
                            <use xlink:href="#path-17"></use>
                        </mask>
                        <g id="Clip-150"></g>
                        <path d="M16.2899,64.1199 L-23.6421,64.1199 C-30.2411,64.1199 -35.6421,58.7199 -35.6421,52.1199 L-35.6421,12.1889 C-35.6421,5.5889 -30.2411,0.1889 -23.6421,0.1889 L16.2899,0.1889 C22.8899,0.1889 28.2899,5.5889 28.2899,12.1889 L28.2899,52.1199 C28.2899,58.7199 22.8899,64.1199 16.2899,64.1199" id="Fill-149" fill="#B1E1FC" mask="url(#mask-18)"></path>
                    </g>
                    <path d="M34.5946,12.6404 C34.5946,19.4344 29.0866,24.9414 22.2926,24.9414 C15.4986,24.9414 9.9906,19.4344 9.9906,12.6404 C9.9906,5.8464 15.4986,0.3384 22.2926,0.3384 C29.0866,0.3384 34.5946,5.8464 34.5946,12.6404" id="Fill-152" fill="#74CFF7"></path>
                </g>
                <path d="M449.4218,219.2058 C446.2098,219.2058 443.5968,221.8188 443.5968,225.0308 C443.5968,228.2428 446.2098,230.8558 449.4218,230.8558 C452.6338,230.8558 455.2468,228.2428 455.2468,225.0308 C455.2468,221.8188 452.6338,219.2058 449.4218,219.2058 M449.4218,235.8558 C443.4528,235.8558 438.5968,230.9998 438.5968,225.0308 C438.5968,219.0618 443.4528,214.2058 449.4218,214.2058 C455.3908,214.2058 460.2468,219.0618 460.2468,225.0308 C460.2468,230.9998 455.3908,235.8558 449.4218,235.8558" id="Fill-155" fill="#B1E1FC"></path>
                <path d="M461.5741,239.6165 C460.9341,239.6165 460.2951,239.3725 459.8061,238.8845 L453.5731,232.6505 C452.5961,231.6745 452.5961,230.0925 453.5731,229.1155 C454.5501,228.1385 456.1321,228.1385 457.1081,229.1155 L463.3421,235.3485 C464.3181,236.3255 464.3181,237.9075 463.3421,238.8845 C462.8531,239.3725 462.2141,239.6165 461.5741,239.6165" id="Fill-157" fill="#B1E1FC"></path>
                <path d="M69.7352,242.9007 C65.4912,242.9007 62.0392,246.3527 62.0392,250.5967 C62.0392,254.8407 65.4912,258.2947 69.7352,258.2947 C73.9792,258.2947 77.4312,254.8407 77.4312,250.5967 C77.4312,246.3527 73.9792,242.9007 69.7352,242.9007 M69.7352,265.2947 C61.6312,265.2947 55.0392,258.7017 55.0392,250.5967 C55.0392,242.4937 61.6312,235.9007 69.7352,235.9007 C77.8392,235.9007 84.4312,242.4937 84.4312,250.5967 C84.4312,258.7017 77.8392,265.2947 69.7352,265.2947" id="Fill-159" fill="#B1E1FC"></path>
                <path d="M53.4813,270.4407 C52.5853,270.4407 51.6903,270.0987 51.0063,269.4157 C49.6393,268.0487 49.6393,265.8327 51.0063,264.4657 L59.3903,256.0827 C60.7573,254.7147 62.9723,254.7147 64.3393,256.0827 C65.7073,257.4487 65.7073,259.6657 64.3393,261.0317 L55.9563,269.4157 C55.2723,270.0987 54.3773,270.4407 53.4813,270.4407" id="Fill-161" fill="#B1E1FC"></path>
                <path d="M323.5048,283.3987 C323.5338,285.9577 294.1618,288.3667 257.8998,288.7797 C221.6388,289.1927 192.2188,287.4537 192.1898,284.8937 C192.1608,282.3357 221.5328,279.9257 257.7948,279.5127 C294.0568,279.0997 323.4768,280.8387 323.5048,283.3987" id="Fill-163" fill="#6EB4DB"></path>
                <path d="M330.996,306.5725 C330.975,307.3975 326.559,307.9545 321.132,307.8165 C315.704,307.6785 311.322,306.8975 311.343,306.0725 C311.364,305.2475 315.78,304.6905 321.208,304.8285 C326.635,304.9665 331.017,305.7475 330.996,306.5725" id="Fill-165" fill="#4490B2"></path>
                <path d="M226.0155,309.1585 C226.0315,310.5495 217.2235,311.7765 206.3425,311.9005 C195.4615,312.0245 186.6275,310.9985 186.6125,309.6075 C186.5965,308.2175 195.4045,306.9895 206.2855,306.8655 C217.1655,306.7425 225.9995,307.7685 226.0155,309.1585" id="Fill-167" fill="#6EB4DB"></path>
                <path d="M232.5164,136.5916 C232.5164,136.5916 225.2024,138.6766 224.8564,144.7676 C224.5104,150.8576 228.0614,191.8696 228.0614,191.8696 L225.7834,198.8596 C225.7834,198.8596 284.7754,208.6136 291.7074,198.3626 C298.6394,188.1116 288.3294,159.8976 288.9244,158.9586 C289.5204,158.0186 286.1224,132.3566 286.1224,132.3566 L284.2024,128.6876 L232.5164,136.5916 Z" id="Fill-169" fill="#162430"></path>
                <path d="M244.7235,139.8626 C244.8525,139.9136 246.0595,143.2576 243.8155,149.2076 C243.4795,150.0986 244.4955,155.7666 251.5935,156.8336 C255.5705,157.4316 265.9535,158.9616 268.5815,151.8726 C268.8425,151.1706 268.8245,150.3946 268.6005,149.6786 C267.8835,147.3786 266.2505,141.4646 267.7025,139.3896 L244.7235,139.8626 Z" id="Fill-171" fill="#E0AF8D"></path>
                <path d="M286.5204,116.718 C286.0514,135.156 272.2124,149.76 255.6114,149.339 C239.0094,148.916 225.9304,133.628 226.3994,115.19 C226.8684,96.752 240.7074,82.147 257.3084,82.569 C273.9104,82.991 286.9894,98.28 286.5204,116.718" id="Fill-173" fill="#F7C9A6"></path>
                <path d="M242.9559,145.8762 L253.2269,150.7482 C255.1179,151.6452 257.3129,151.6442 259.2049,150.7452 L270.7309,145.2642 L242.9559,145.8762 Z" id="Fill-175" fill="#F7C9A6"></path>
                <path d="M247.8387,108.658 C247.8387,108.658 239.9277,117.354 232.3147,117.58 C232.3147,117.58 227.5497,117.554 227.3527,114.071 C227.1547,110.587 246.6547,100.837 246.8457,100.842 C247.0357,100.846 251.0617,107.477 251.0617,107.477 C251.0617,107.477 278.0697,124.795 280.5997,124.669 C283.1277,124.543 282.9837,131.923 282.9837,131.923 L279.1227,137.771 C279.1227,137.771 278.9427,131.68 274.1227,129.27 C270.1987,127.309 251.2747,118.777 247.8387,108.658" id="Fill-177" fill="#E0AF8D"></path>
                <path d="M249.8485,76.868 L247.5895,106.96 C247.5895,106.96 249.1315,128.859 230.5585,140.236 C230.5585,140.236 225.8815,142.902 230.5415,148.874 C234.2025,153.564 232.5175,157.809 231.6255,159.414 C231.1235,160.318 230.8205,161.324 230.8125,162.358 C230.8005,163.76 231.1625,165.681 232.6675,167.728 C235.6575,171.795 232.7065,174.882 232.0555,176.703 C231.4055,178.525 229.5135,182.619 232.5855,185.259 C235.6595,187.899 235.6835,198.919 228.5045,198.008 C225.0005,198.289 217.2145,194.597 216.6875,189.788 C216.1595,184.981 219.3695,182.696 216.7705,178.891 C214.1705,175.087 217.5375,167.397 217.5375,167.397 C217.5375,167.397 218.1825,162.218 216.0495,158.761 C214.2745,155.884 213.8695,154.71 214.0205,152.774 C214.1755,150.774 216.5395,148.258 216.6235,146.253 C216.8525,140.758 215.6345,138.762 213.0925,132.611 C210.6985,126.819 207.2845,121.163 213.7775,108.198 C215.5555,104.646 217.1405,100.574 217.5255,97.208 C218.4475,89.146 223.2015,81.843 230.6105,78.534 C235.0925,76.533 242.5285,74.458 249.8485,76.868" id="Fill-179" fill="#162430"></path>
                <path d="M247.5897,106.9602 C247.5897,106.9602 242.2877,109.9502 237.0767,113.9362 C232.3147,117.5802 230.1647,117.1602 230.1647,117.1602 C230.1647,117.1602 225.2177,108.0432 222.5277,116.4262 C220.7737,121.8882 225.0327,130.3332 228.3527,129.0832 C228.3527,129.0832 232.0877,137.7322 238.7517,143.0522 C242.1027,145.7272 257.1527,134.0872 257.1527,134.0872 C257.1527,134.0872 249.1997,120.7262 249.2087,120.3442 C249.2187,119.9632 247.5897,106.9602 247.5897,106.9602" id="Fill-181" fill="#F7C9A6"></path>
                <path d="M226.7372,115.7703 C226.7372,115.7703 222.1492,114.4153 224.4252,122.3353 C224.4252,122.3353 223.4242,116.7343 226.7372,115.7703" id="Fill-183" fill="#E0AF8D"></path>
                <path d="M227.9696,123.2893 C227.9696,123.2893 226.6336,122.7723 225.9786,124.5163 C225.9786,124.5163 225.5856,121.8633 227.9696,123.2893" id="Fill-185" fill="#E0AF8D"></path>
                <path d="M267.8368,129.9803 C267.8028,131.3313 266.6798,132.3983 265.3288,132.3643 C263.9788,132.3293 262.9108,131.2073 262.9448,129.8563 C262.9798,128.5053 264.1028,127.4383 265.4528,127.4723 C266.8038,127.5063 267.8708,128.6293 267.8368,129.9803" id="Fill-187" fill="#162430"></path>
                <path d="M260.5643,122.0989 L260.8753,123.3169 C260.9843,123.7479 261.4543,123.9799 261.8823,123.8259 C263.4953,123.2449 267.5093,122.3419 273.3343,124.7049 C273.3343,124.7049 274.8903,125.1719 275.4953,125.8549 C276.4563,126.9399 275.0923,118.3959 261.2933,120.9859 C260.7703,121.0839 260.4363,121.5979 260.5643,122.0989" id="Fill-189" fill="#162430"></path>
                <path d="M246.4354,129.6116 C246.4014,130.9626 245.2784,132.0296 243.9274,131.9946 C242.5774,131.9606 241.5094,130.8376 241.5434,129.4866 C241.5784,128.1366 242.7014,127.0696 244.0514,127.1036 C245.4024,127.1376 246.4694,128.2606 246.4354,129.6116" id="Fill-191" fill="#162430"></path>
                <path d="M248.7616,121.5882 L248.3596,122.7752 C248.2166,123.1952 247.7436,123.3862 247.3436,123.1962 C245.8346,122.4802 242.0326,121.2382 236.2086,123.0962 C236.2086,123.0962 234.6656,123.4282 234.0246,124.0572 C233.0046,125.0562 235.0406,116.6602 248.1526,120.4172 C248.6486,120.5592 248.9276,121.0992 248.7616,121.5882" id="Fill-193" fill="#162430"></path>
                <path d="M246.0848,128.7971 C245.9078,128.7971 245.7378,128.7031 245.6478,128.5391 C245.6198,128.4991 245.0248,127.6501 242.7538,128.1211 C239.5718,128.7761 238.9218,127.0491 238.8968,126.9751 C238.8048,126.7141 238.9418,126.4291 239.2018,126.3381 C239.4638,126.2461 239.7478,126.3831 239.8398,126.6441 C239.8528,126.6701 240.2808,127.6121 242.5508,127.1411 C245.6318,126.5061 246.4458,127.9061 246.5288,128.0681 C246.6558,128.3141 246.5598,128.6151 246.3138,128.7411 C246.2408,128.7791 246.1618,128.7971 246.0848,128.7971" id="Fill-195" fill="#162430"></path>
                <path d="M263.5946,129.0242 C263.5046,129.0242 263.4146,129.0012 263.3346,128.9502 C263.1066,128.8072 263.0286,128.5162 263.1626,128.2832 C263.2546,128.1252 264.1406,126.7672 267.1836,127.5602 C269.4126,128.1392 269.8786,127.2392 269.8826,127.2302 C269.9846,126.9732 270.2746,126.8462 270.5306,126.9472 C270.7876,127.0482 270.9136,127.3382 270.8126,127.5962 C270.7846,127.6682 270.0886,129.3502 266.9316,128.5272 C264.6356,127.9312 264.0256,128.7902 264.0196,128.7992 C263.9216,128.9432 263.7586,129.0242 263.5946,129.0242" id="Fill-197" fill="#162430"></path>
                <path d="M251.0194,142.0882 L260.0284,142.3172 C260.4954,142.3292 260.7764,142.8452 260.5244,143.2382 C259.6374,144.6252 257.7444,147.1292 255.6684,147.0762 C253.0264,147.0092 251.2574,144.2612 250.5274,142.8642 C250.3384,142.5032 250.6124,142.0782 251.0194,142.0882" id="Fill-199" fill="#F9F9F9"></path>
                <path d="M252.8358,147.0042 C252.8358,147.0042 255.2858,148.7412 258.3048,147.1432 C258.3048,147.1432 257.8968,149.0582 255.6288,149.0052 C253.3948,148.9532 252.8358,147.0042 252.8358,147.0042" id="Fill-201" fill="#E0AF8D"></path>
                <path d="M251.7147,137.136 C253.0487,137.78 256.1817,138.886 259.6757,137.291 C259.7697,137.248 259.8807,137.32 259.8097,137.379 L256.9767,139.754 C256.2497,140.363 254.8707,140.327 254.1767,139.682 L251.5587,137.251 C251.4777,137.176 251.6037,137.082 251.7147,137.136" id="Fill-203" fill="#E0AF8D"></path>
                <path d="M247.6141,155.031 L243.8561,149.208 C243.2811,148.316 235.2671,151.066 234.2511,151.417 C231.0531,152.522 227.9781,153.961 225.0431,155.635 C217.8021,159.765 212.9041,164.952 209.0501,172.349 C203.2791,183.425 197.9211,194.817 192.6061,206.128 C189.9501,211.781 186.3741,218.863 192.0781,223.452 C206.1891,234.81 216.4261,210.867 222.5271,201.071 C224.8831,197.328 227.3781,193.012 227.1351,190.7 C226.8151,187.636 227.5801,184.562 229.3141,182.005 L247.6141,155.031 Z" id="Fill-205" fill="#F9F9F9"></path>
                <path d="M316.495,232.4212 C310.997,232.5572 305.536,233.8392 300.107,234.6392 C295.39,235.3332 290.673,236.0332 285.956,236.7372 C276.74,238.1112 267.525,239.4962 258.311,240.8852 C255.82,241.2602 253.33,241.6362 250.84,242.0132 C250.398,242.0792 248.319,242.0762 248.015,242.4402 C248.014,242.4412 243.822,247.4322 242.476,269.3312 C241.13,291.2322 306.965,276.1312 307.921,275.5822 C308.877,275.0342 345.059,279.1472 343.681,251.8792 C343.06,239.5862 327.651,232.3342 317.169,232.4102 C316.944,232.4112 316.72,232.4152 316.495,232.4212" id="Fill-207" fill="#1F303A"></path>
                <path d="M193.8495,233.678 C195.1695,233.658 243.1175,243.676 243.1175,243.676 C243.1175,243.676 272.1715,241.404 271.6145,263.33 C271.0575,285.238 208.4215,280.861 207.4025,280.492 C206.3835,280.123 173.4645,280.558 170.0395,253.482 C170.0395,253.482 172.5825,233.985 193.8495,233.678" id="Fill-209" fill="#283D4C"></path>
                <path d="M255.5702,244.5823 C255.5702,244.5823 250.0202,264.1873 262.4472,277.6793 L287.0792,259.4303 L278.7772,244.5823 L255.5702,244.5823 Z" id="Fill-211" fill="#1F303A"></path>
                <path d="M219.1893,238.7132 C219.4623,239.7092 240.3353,240.0792 256.4603,265.9522 L254.7073,239.9052 L219.1893,238.7132 Z" id="Fill-213" fill="#1F303A"></path>
                <path d="M280.6541,296.3059 L196.1131,279.4919 C190.9371,278.4109 184.3201,274.9529 180.2291,271.6029 C173.2651,265.8989 165.5601,256.1569 173.1591,244.3569 C185.4261,225.3079 207.5541,237.4759 207.5541,237.4759 L286.3771,283.3729 C287.3541,283.9429 287.7361,285.1639 287.2561,286.1879 L283.0781,295.0949 C282.6471,296.0109 281.6451,296.5119 280.6541,296.3059" id="Fill-215" fill="#375266"></path>
                <path d="M175.2039,265.3255 C174.6689,264.9035 174.4059,264.6675 174.4059,264.6675 L175.0739,263.9235 C175.0809,263.9295 175.3279,264.1495 175.8229,264.5405 L175.2039,265.3255 Z M176.8299,266.5375 C176.5269,266.3225 176.2549,266.1245 176.0109,265.9425 L176.6079,265.1395 C176.8469,265.3175 177.1129,265.5125 177.4079,265.7215 L176.8299,266.5375 Z M178.4949,267.6755 C178.1999,267.4805 177.9209,267.2935 177.6579,267.1145 L178.2209,266.2885 C178.4789,266.4655 178.7549,266.6485 179.0459,266.8415 L178.4949,267.6755 Z M180.1969,268.7565 C179.9009,268.5735 179.6169,268.3955 179.3439,268.2225 L179.8789,267.3775 C180.1479,267.5485 180.4309,267.7235 180.7229,267.9045 L180.1969,268.7565 Z M181.9299,269.7875 C181.6299,269.6145 181.3399,269.4445 181.0589,269.2775 L181.5709,268.4185 C181.8479,268.5835 182.1339,268.7515 182.4279,268.9205 L181.9299,269.7875 Z M183.6849,270.7705 C183.3839,270.6065 183.0909,270.4445 182.8049,270.2845 L183.2929,269.4115 C183.5749,269.5695 183.8659,269.7295 184.1639,269.8915 L183.6849,270.7705 Z M185.4639,271.7095 L184.5719,271.2455 L185.0389,270.3605 L185.9209,270.8205 L185.4639,271.7095 Z M187.2629,272.6085 C186.9559,272.4605 186.6559,272.3115 186.3609,272.1645 L186.8079,271.2695 C187.0999,271.4155 187.3969,271.5625 187.6999,271.7105 L187.2629,272.6085 Z M189.0809,273.4685 C188.7709,273.3255 188.4679,273.1845 188.1699,273.0435 L188.5979,272.1385 C188.8929,272.2785 189.1929,272.4195 189.4989,272.5595 L189.0809,273.4685 Z M190.9169,274.2895 C190.6049,274.1545 190.2989,274.0185 189.9969,273.8835 L190.4049,272.9715 C190.7049,273.1045 191.0079,273.2385 191.3149,273.3735 L190.9169,274.2895 Z M192.7669,275.0745 C192.4539,274.9455 192.1439,274.8155 191.8389,274.6855 L192.2289,273.7655 C192.5309,273.8935 192.8369,274.0215 193.1459,274.1485 L192.7669,275.0745 Z M194.6289,275.8245 L193.6949,275.4535 L194.0679,274.5255 L194.9939,274.8925 L194.6289,275.8245 Z M196.5079,276.5395 L195.5669,276.1865 L195.9229,275.2515 L196.8549,275.6015 L196.5079,276.5395 Z M198.3969,277.2205 L197.4499,276.8835 L197.7899,275.9435 L198.7269,276.2765 L198.3969,277.2205 Z M200.2979,277.8695 L199.3469,277.5495 L199.6689,276.6015 L200.6139,276.9205 L200.2979,277.8695 Z M202.2089,278.4855 L201.2529,278.1805 L201.5589,277.2295 L202.5099,277.5325 L202.2089,278.4855 Z M204.1319,279.0695 C203.8079,278.9745 203.4859,278.8785 203.1679,278.7815 L203.4609,277.8245 C203.7749,277.9215 204.0929,278.0155 204.4129,278.1105 L204.1319,279.0695 Z M206.0589,279.6245 L205.0929,279.3505 L205.3699,278.3895 L206.3269,278.6615 L206.0589,279.6245 Z M207.9989,280.1485 C207.6719,280.0635 207.3479,279.9765 207.0269,279.8895 L207.2889,278.9255 C207.6069,279.0125 207.9279,279.0965 208.2509,279.1815 L207.9989,280.1485 Z M209.9429,280.6445 L208.9689,280.4005 L209.2169,279.4315 L210.1819,279.6745 L209.9429,280.6445 Z M211.8949,281.1095 L210.9179,280.8805 L211.1499,279.9075 L212.1199,280.1355 L211.8949,281.1095 Z M213.8529,281.5475 L212.8739,281.3325 L213.0929,280.3555 L214.0659,280.5705 L213.8529,281.5475 Z M215.8179,281.9585 L214.8359,281.7565 L215.0389,280.7775 L216.0159,280.9775 L215.8179,281.9585 Z M217.7889,282.3405 L216.8029,282.1525 L216.9939,281.1705 L217.9729,281.3575 L217.7889,282.3405 Z M219.7619,282.6965 L218.7749,282.5215 L218.9529,281.5375 L219.9349,281.7125 L219.7619,282.6965 Z M221.7409,283.0265 L220.7519,282.8645 L220.9159,281.8785 L221.9009,282.0405 L221.7409,283.0265 Z M223.6869,283.3815 L222.7079,283.1795 L222.9089,282.1995 L223.8889,282.4005 L223.6869,283.3815 Z M225.6459,283.7845 L224.6669,283.5835 L224.8679,282.6025 L225.8479,282.8045 L225.6459,283.7845 Z M227.6049,284.1875 L226.6259,283.9865 L226.8269,283.0065 L227.8069,283.2075 L227.6049,284.1875 Z M229.5639,284.5915 L228.5849,284.3895 L228.7859,283.4095 L229.7659,283.6105 L229.5639,284.5915 Z M231.5229,284.9935 L230.5439,284.7915 L230.7449,283.8125 L231.7249,284.0145 L231.5229,284.9935 Z M233.4819,285.3965 L232.5029,285.1945 L232.7039,284.2165 L233.6829,284.4185 L233.4819,285.3965 Z M235.4409,285.8005 L234.4619,285.5975 L234.6629,284.6195 L235.6419,284.8215 L235.4409,285.8005 Z M237.3999,286.2035 L236.4209,286.0015 L236.6219,285.0225 L237.6009,285.2245 L237.3999,286.2035 Z M239.3589,286.6065 L238.3799,286.4055 L238.5809,285.4255 L239.5599,285.6265 L239.3589,286.6065 Z M241.3179,287.0105 L240.3389,286.8085 L240.5399,285.8285 L241.5189,286.0295 L241.3179,287.0105 Z M243.2769,287.4135 L242.2979,287.2125 L242.4989,286.2315 L243.4779,286.4325 L243.2769,287.4135 Z M245.2359,287.8165 L244.2569,287.6155 L244.4579,286.6355 L245.4369,286.8365 L245.2359,287.8165 Z M247.1949,288.2205 L246.2159,288.0185 L246.4169,287.0385 L247.3959,287.2395 L247.1949,288.2205 Z M249.1539,288.6225 L248.1749,288.4205 L248.3759,287.4415 L249.3549,287.6435 L249.1539,288.6225 Z M251.1119,289.0255 L250.1329,288.8235 L250.3339,287.8455 L251.3129,288.0475 L251.1119,289.0255 Z M253.0709,289.4295 L252.0919,289.2265 L252.2929,288.2485 L253.2719,288.4505 L253.0709,289.4295 Z M255.0299,289.8325 L254.0509,289.6305 L254.2519,288.6515 L255.2309,288.8535 L255.0299,289.8325 Z M256.9889,290.2355 L256.0099,290.0345 L256.2109,289.0545 L257.1899,289.2555 L256.9889,290.2355 Z M258.9479,290.6385 L257.9689,290.4375 L258.1699,289.4575 L259.1489,289.6585 L258.9479,290.6385 Z M260.9069,291.0425 L259.9279,290.8415 L260.1289,289.8605 L261.1079,290.0615 L260.9069,291.0425 Z M262.8659,291.4455 L261.8869,291.2445 L262.0879,290.2635 L263.0669,290.4655 L262.8659,291.4455 Z M264.8249,291.8485 L263.8459,291.6475 L264.0469,290.6675 L265.0259,290.8685 L264.8249,291.8485 Z M266.7839,292.2515 L265.8049,292.0495 L266.0059,291.0705 L266.9849,291.2725 L266.7839,292.2515 Z M268.7429,292.6545 L267.7639,292.4525 L267.9649,291.4735 L268.9439,291.6765 L268.7429,292.6545 Z M270.7019,293.0575 L269.7229,292.8555 L269.9239,291.8775 L270.9029,292.0795 L270.7019,293.0575 Z M272.6609,293.4615 L271.6819,293.2595 L271.8829,292.2805 L272.8619,292.4825 L272.6609,293.4615 Z M274.6199,293.8645 L273.6409,293.6635 L273.8419,292.6825 L274.8209,292.8845 L274.6199,293.8645 Z M276.5789,294.2675 L275.5999,294.0665 L275.8009,293.0865 L276.7799,293.2875 L276.5789,294.2675 Z M278.5379,294.6715 L277.5579,294.4705 L277.7599,293.4895 L278.7389,293.6905 L278.5379,294.6715 Z M280.4969,295.0745 L279.5169,294.8735 L279.7189,293.8925 L280.6979,294.0945 L280.4969,295.0745 Z M282.4559,295.4775 L281.4759,295.2765 L281.6779,294.2965 L282.6569,294.4975 L282.4559,295.4775 Z" id="Fill-217" fill="#304756"></path>
                <path d="M232.6854,286.2512 L299.5364,239.5562 C302.9884,237.1452 306.9104,235.4882 311.0554,234.7502 C320.2764,233.1072 335.7664,232.7612 342.0214,246.8262 C351.1944,267.4502 326.8744,274.9902 326.8744,274.9902 L237.9564,300.2262 C236.8294,300.5462 235.6254,300.0762 235.0134,299.0772 L231.2814,292.9842 C229.8944,290.7222 230.5094,287.7712 232.6854,286.2512" id="Fill-219" fill="#334A5E"></path>
                <polygon id="Fill-221" fill="#375266" points="237.7616 299.0872 237.4566 298.1342 237.9316 297.9842 238.2326 298.9382"></polygon>
                <path d="M335.3231,269.7083 L335.1041,268.7313 C335.4791,268.6473 335.8131,268.5773 336.1041,268.5213 L336.2921,269.5043 C336.0101,269.5583 335.6861,269.6263 335.3231,269.7083 Z M333.3791,270.1743 L333.1351,269.2053 L334.1171,268.9623 L334.3511,269.9353 L333.3791,270.1743 Z M331.4361,270.6783 L331.1801,269.7113 L332.1571,269.4553 L332.4071,270.4243 L331.4361,270.6783 Z M329.4991,271.1983 L329.2351,270.2333 L330.2091,269.9703 L330.4671,270.9373 L329.4991,271.1983 Z M327.5641,271.7313 L327.2951,270.7693 L328.2671,270.5003 L328.5291,271.4653 L327.5641,271.7313 Z M325.6311,272.2733 L325.3591,271.3113 L326.3291,271.0393 L326.5961,272.0023 L325.6311,272.2733 Z M323.6971,272.8213 L323.4241,271.8603 L324.3911,271.5853 L324.6631,272.5483 L323.6971,272.8213 Z M321.7691,273.3753 L321.4921,272.4143 L322.4601,272.1373 L322.7331,273.0983 L321.7691,273.3753 Z M319.8411,273.9353 L319.5611,272.9743 L320.5261,272.6933 L320.8051,273.6543 L319.8411,273.9353 Z M317.9131,274.4953 L317.6321,273.5363 L318.5971,273.2543 L318.8771,274.2153 L317.9131,274.4953 Z M315.9861,275.0613 L315.7051,274.1023 L316.6701,273.8183 L316.9491,274.7793 L315.9861,275.0613 Z M314.0601,275.6283 L313.7771,274.6693 L314.7421,274.3853 L315.0231,275.3443 L314.0601,275.6283 Z M312.1351,276.1973 L311.8501,275.2383 L312.8121,274.9533 L313.0971,275.9123 L312.1351,276.1973 Z M310.2101,276.7703 L309.9251,275.8113 L310.8861,275.5243 L311.1721,276.4833 L310.2101,276.7703 Z M308.2871,277.3433 L308.0001,276.3863 L308.9651,276.0983 L309.2481,277.0573 L308.2871,277.3433 Z M306.3621,277.9203 L306.0751,276.9633 L307.0371,276.6753 L307.3241,277.6323 L306.3621,277.9203 Z M304.4391,278.4963 L304.1501,277.5393 L305.1131,277.2493 L305.4001,278.2083 L304.4391,278.4963 Z M302.5171,279.0753 L302.2281,278.1183 L303.1891,277.8283 L303.4781,278.7853 L302.5171,279.0753 Z M300.5941,279.6553 L300.3051,278.6983 L301.2671,278.4083 L301.5561,279.3653 L300.5941,279.6553 Z M298.6751,280.2373 L298.3841,279.2803 L299.3451,278.9893 L299.6341,279.9463 L298.6751,280.2373 Z M296.7521,280.8193 L296.4611,279.8623 L297.4221,279.5713 L297.7111,280.5283 L296.7521,280.8193 Z M294.8311,281.4033 L294.5401,280.4463 L295.5021,280.1543 L295.7911,281.1113 L294.8311,281.4033 Z M292.9101,281.9883 L292.6191,281.0313 L293.5781,280.7383 L293.8711,281.6953 L292.9101,281.9883 Z M290.9891,282.5733 L290.6981,281.6163 L291.6571,281.3233 L291.9501,282.2803 L290.9891,282.5733 Z M289.0681,283.1593 L288.7771,282.2023 L289.7361,281.9093 L290.0311,282.8643 L289.0681,283.1593 Z M287.1481,283.7483 L286.8571,282.7913 L287.8151,282.4983 L288.1101,283.4533 L287.1481,283.7483 Z M285.2251,284.3363 L284.9301,283.3813 L285.8941,283.0853 L286.1851,284.0423 L285.2251,284.3363 Z M283.3031,284.9273 L283.0101,283.9703 L283.9711,283.6763 L284.2621,284.6333 L283.3031,284.9273 Z M281.3881,285.5143 L281.0951,284.5593 L282.0511,284.2653 L282.3461,285.2203 L281.3881,285.5143 Z M279.4731,286.1043 L279.1781,285.1483 L280.1381,284.8533 L280.4311,285.8103 L279.4731,286.1043 Z M277.5531,286.6943 L277.2591,285.7393 L278.2201,285.4433 L278.5111,286.4003 L277.5531,286.6943 Z M275.6351,287.2853 L275.3411,286.3303 L276.3001,286.0343 L276.5941,286.9893 L275.6351,287.2853 Z M273.7171,287.8783 L273.4221,286.9233 L274.3811,286.6263 L274.6771,287.5813 L273.7171,287.8783 Z M271.7991,288.4723 L271.5021,287.5173 L272.4611,287.2203 L272.7581,288.1753 L271.7991,288.4723 Z M269.8811,289.0653 L269.5841,288.1103 L270.5431,287.8133 L270.8401,288.7693 L269.8811,289.0653 Z M267.9631,289.6593 L267.6661,288.7043 L268.6251,288.4073 L268.9221,289.3623 L267.9631,289.6593 Z M266.0451,290.2543 L265.7481,289.2993 L266.7091,289.0023 L267.0021,289.9573 L266.0451,290.2543 Z M264.1261,290.8483 L263.8291,289.8933 L264.7881,289.5953 L265.0851,290.5503 L264.1261,290.8483 Z M262.2081,291.4443 L261.9111,290.4893 L262.8711,290.1913 L263.1661,291.1463 L262.2081,291.4443 Z M260.2911,292.0413 L259.9941,291.0863 L260.9541,290.7883 L261.2491,291.7433 L260.2911,292.0413 Z M258.3721,292.6383 L258.0751,291.6833 L259.0351,291.3853 L259.3301,292.3403 L258.3721,292.6383 Z M256.4541,293.2343 L256.1571,292.2793 L257.1161,291.9803 L257.4131,292.9363 L256.4541,293.2343 Z M254.5381,293.8333 L254.2411,292.8783 L255.2001,292.5793 L255.4971,293.5343 L254.5381,293.8333 Z M252.6211,294.4313 L252.3221,293.4763 L253.2811,293.1763 L253.5801,294.1313 L252.6211,294.4313 Z M250.7021,295.0303 L250.4031,294.0753 L251.3621,293.7753 L251.6611,294.7303 L250.7021,295.0303 Z M248.7851,295.6293 L248.4861,294.6743 L249.4471,294.3743 L249.7441,295.3293 L248.7851,295.6293 Z M246.8661,296.2293 L246.5691,295.2733 L247.5281,294.9743 L247.8271,295.9293 L246.8661,296.2293 Z M244.9481,296.8303 L244.6491,295.8753 L245.6091,295.5743 L245.9081,296.5293 L244.9481,296.8303 Z M243.0301,297.4303 L242.7291,296.4773 L243.6911,296.1753 L243.9881,297.1303 L243.0301,297.4303 Z M241.1081,298.0333 L240.8091,297.0803 L241.7681,296.7783 L242.0691,297.7313 L241.1081,298.0333 Z M239.1851,298.6383 L238.8841,297.6853 L239.8481,297.3823 L240.1471,298.3373 L239.1851,298.6383 Z" id="Fill-223" fill="#375266"></path>
                <path d="M337.1063,269.0403 L337.0383,268.3743 C337.3043,268.3483 337.9173,268.2843 338.0483,268.7933 L337.1063,269.0403 Z M337.1393,269.3683 L337.1163,269.1383 C337.1893,269.2833 337.3243,269.3503 337.3843,269.3583 C337.3813,269.3573 337.3193,269.3503 337.1393,269.3683 Z" id="Fill-225" fill="#375266"></path>
                <path d="M341.6669,245.6497 L347.0659,251.0037 C347.2289,251.1967 347.2809,251.4597 347.2049,251.6997 L346.0779,255.2397 L341.6669,245.6497 Z" id="Fill-227" fill="#F7C9A6"></path>
                <path d="M326.4012,242.6585 C326.4952,242.9355 326.5832,243.2155 326.6602,243.4975 C327.0142,244.7885 327.5312,246.1495 327.4732,247.5305 C327.4152,248.9325 326.8252,250.4695 326.2102,251.7115 C326.2102,251.7115 323.6762,256.8005 327.3852,255.4445 C330.1472,254.4345 330.8712,251.5765 330.8802,250.4685 C330.8822,250.0635 330.9552,249.6595 331.1342,249.2975 C331.4182,248.7275 331.9542,248.2405 332.8662,249.3615 C333.8772,250.6035 336.2552,253.2725 336.7422,257.8525 C336.7772,258.1755 336.7312,258.5035 336.6232,258.8085 L335.1752,262.9105 C334.9552,263.5365 335.0292,264.2495 335.4392,264.7705 C335.8242,265.2595 336.4632,265.5795 337.4782,264.9055 C339.4152,263.6205 340.5362,260.4705 341.0482,258.6275 C341.2892,257.7615 341.2682,256.8465 340.9912,255.9915 L338.4622,249.3815 L339.9752,251.7165 C340.1722,252.0575 340.7792,253.3085 341.1222,253.9295 L341.9542,255.5935 C342.1142,255.9115 342.1782,256.2715 342.1352,256.6265 C342.0472,257.3605 342.0602,257.6925 341.8852,258.1025 C341.5002,259.0065 341.1482,260.4105 340.6052,261.6225 C340.4192,262.0385 340.3942,262.5675 340.4062,263.0235 C340.4242,263.8025 340.6942,264.6365 341.8852,264.1185 C343.5352,263.4005 345.4722,258.4125 346.1442,256.5595 C346.3002,256.1265 346.2772,255.6545 346.0782,255.2395 C345.7562,254.5695 345.1222,253.1925 344.2072,250.8405 C343.4332,248.8505 341.8022,245.8125 341.8022,245.8125 C341.8022,245.8125 340.0352,239.4735 334.5692,234.9365 C329.1032,230.4005 324.8102,237.6815 325.3222,239.5515 C325.6122,240.6105 326.0482,241.6205 326.4012,242.6585" id="Fill-229" fill="#F7C9A6"></path>
                <path d="M337.2772,237.638 C337.2772,237.638 342.8992,243.999 344.7192,245.793 C344.9342,246.005 345.0612,246.285 345.0812,246.586 L345.2512,249.203 L341.8022,245.813 L337.2772,237.638 Z" id="Fill-231" fill="#F7C9A6"></path>
                <path d="M326.2665,237.2854 L302.2085,231.0124 C300.0815,230.2254 298.2745,228.7604 297.0655,226.8414 L287.6485,211.8904 L304.0515,206.3154 L307.3375,207.0734 L309.9605,212.0084 L314.8275,219.0024 L334.5695,234.9364 C334.5695,234.9364 330.9235,232.5554 326.2665,237.2854" id="Fill-233" fill="#F7C9A6"></path>
                <path d="M291.3641,217.7898 C291.3641,217.7898 291.2221,217.3828 292.7671,215.4398 C295.2531,212.3158 306.6871,208.3028 308.9331,210.0018 C309.5501,211.2168 309.3301,210.8208 309.3061,210.7778 C309.5271,211.1798 310.2011,209.2858 310.2051,209.2608 C310.5721,207.2828 309.1551,205.9768 308.4761,204.3098 C308.0831,203.3398 307.8111,202.3108 307.5351,201.3038 C306.7211,198.3428 306.0451,195.3418 305.3831,192.3438 C304.7421,189.4418 303.9431,186.4938 303.5311,183.5478 C303.5301,183.5368 298.8701,150.2048 270.6061,150.2048 L264.7911,160.7278 L264.7911,171.6128 L275.4901,189.2728 L285.4851,208.8668 C285.4851,208.8668 288.4601,218.9078 291.3641,217.7898" id="Fill-235" fill="#F9F9F9"></path>
                <path d="M244.1112,152.2683 L227.6562,172.3513 C224.3652,176.3673 222.5192,181.3893 222.5272,186.5823 C222.5302,189.1433 222.8252,192.0683 223.6662,195.1883 C226.4282,205.4493 227.0202,238.0813 227.0202,238.0813 L282.0732,236.3523 L285.8052,206.2863 C286.4752,201.1403 288.3362,196.6173 288.8802,191.3593 C289.7322,183.1193 283.6502,175.5453 279.7962,168.5843 C277.2132,163.9203 271.1652,156.5373 268.5822,151.8723 C268.5822,151.8723 259.4182,161.9043 244.1112,152.2683" id="Fill-237" fill="#1BD9C4"></path>
                <path d="M243.8495,149.2078 C243.8495,149.2078 248.0855,155.3318 256.0495,155.6838 C263.8725,156.0298 268.8745,149.8438 268.8745,149.8438 C268.8745,149.8438 270.3255,148.2398 270.6065,150.2048 C270.8865,152.1688 267.7355,159.4578 256.4985,159.1218 C246.7815,158.8318 242.1285,152.7168 241.7635,149.5478 C241.7635,149.5478 241.8355,146.8558 243.8495,149.2078" id="Fill-239" fill="#18B7A0"></path>
                <path d="M275.325,149.6658 C274.216,151.5778 276.791,156.8008 277.712,158.3888 C278.729,160.1458 280.07,161.8598 280.183,163.8708 C280.345,166.7188 278.02,169.0938 277.219,171.8368 C276.374,174.7288 277.272,177.7898 277.829,180.7488 C278.333,183.4318 278.254,186.1208 277.105,188.5098 C276.514,189.7378 276.995,191.2178 278.15,191.9398 L283.848,195.5058 C283.848,195.5058 291.263,180.6978 291.489,180.1378 C291.715,179.5778 291.741,161.8938 291.974,161.0508 C292.207,160.2078 288.76,150.0078 288.76,150.0078 L280.996,147.7208 C279.652,148.1278 276.506,148.4398 275.552,149.3738 C275.464,149.4588 275.388,149.5578 275.325,149.6658" id="Fill-241" fill="#162430"></path>
                <path d="M249.7831,77.1609 L247.6241,106.5049 C247.6001,106.8149 247.6721,107.1159 247.8341,107.3809 C249.2311,109.6609 256.9301,120.6139 278.4481,125.5459 C278.8621,125.6409 279.2201,125.9039 279.4151,126.2819 C280.4901,128.3749 283.7441,135.6279 280.5991,141.5079 C278.6921,145.0759 278.4531,149.4349 278.9991,153.3739 C279.2761,155.3799 279.7801,157.3659 280.5501,159.2409 C281.1961,160.8159 282.7391,162.5449 282.7641,164.2949 C282.7831,165.5949 282.5221,167.1929 281.6351,168.9709 C280.5801,171.0829 279.6801,173.5139 279.8791,175.9169 C280.0431,177.9139 281.0681,179.7709 280.8781,181.8049 C280.6811,183.8859 279.5901,186.0179 278.2871,187.6119 C275.6431,190.8489 279.7601,200.6159 285.4161,201.2939 C291.0721,201.9729 294.8871,194.7619 294.6891,189.6969 C294.4921,184.6319 294.0001,182.5409 296.0021,178.1759 C297.8971,174.0429 296.8501,166.9579 296.5721,166.2119 C296.5531,166.1599 296.5411,166.1219 296.5271,166.0679 C296.3581,165.3919 295.2521,160.6059 296.7281,156.9619 C299.0571,151.2139 297.3561,147.4069 296.2141,145.7199 C294.3801,143.0109 293.9271,139.5419 295.0071,136.4539 C295.4081,135.3059 295.9861,134.0269 296.7971,132.6149 C300.3321,126.4479 303.8301,112.2679 295.0491,103.3569 C289.8831,98.1149 285.1071,88.5709 285.1071,88.5709 C285.1071,88.5709 274.0891,67.6049 251.5801,74.9039 C250.5791,75.2279 249.8601,76.1119 249.7831,77.1609" id="Fill-243" fill="#162430"></path>
                <path d="M291.6024,285.635 C291.6024,285.635 293.9214,281.757 296.5514,282.995 C299.1814,284.234 300.1154,285.448 300.1154,285.448 L302.7014,290.464 C302.7014,290.464 291.8444,288.566 291.6964,288.358 C291.5464,288.151 291.6024,285.635 291.6024,285.635" id="Fill-245" fill="#223547"></path>
                <path d="M287.9295,295.2844 C287.4565,296.7844 287.5685,298.4364 288.3575,299.7974 C288.8635,300.6704 289.6365,301.4004 290.8095,301.3984 C290.8385,301.3984 290.8675,301.3984 290.8965,301.3974 C293.0805,301.3834 295.1885,300.6034 296.9175,299.2704 L299.5465,297.2434 C299.5465,297.2434 288.7145,293.7204 288.4915,293.8454 C288.3865,293.9034 288.1505,294.5814 287.9295,295.2844" id="Fill-247" fill="#223547"></path>
                <path d="M278.2157,293.7151 C278.8917,293.7911 292.7337,296.2761 292.7337,296.2761 L296.9327,289.5791 L282.6967,282.3971 L278.2157,293.7151 Z" id="Fill-249" fill="#E0AF8D"></path>
                <path d="M285.9139,295.6897 C285.9139,295.6897 290.3959,288.6867 291.0059,284.2637 C291.0059,284.2637 292.0029,282.8807 292.7239,284.2057 C293.4439,285.5297 293.7109,282.9637 294.6689,283.9967 C295.6279,285.0287 297.4939,283.5727 297.2249,286.0517 C296.9549,288.5327 298.9299,289.7937 298.9299,289.7937 L297.7329,296.4727 L293.6069,297.4867 C293.6069,297.4867 292.5599,299.9727 291.5069,298.8007 C290.4529,297.6297 288.0299,299.4187 288.0409,297.6777 C288.0519,295.9377 285.3769,298.6517 285.9139,295.6897" id="Fill-251" fill="#E6E7E8"></path>
                <path d="M297.0692,298.0423 C297.0692,298.0423 288.5682,298.5563 290.1152,293.9903 C291.6612,289.4243 293.1252,286.8653 293.1252,286.8653 C293.1252,286.8653 294.1882,284.4623 297.2242,286.0523 C299.2282,287.1023 301.1392,288.4223 301.1392,288.4223 L297.0692,298.0423 Z" id="Fill-253" fill="#18B7A0"></path>
                <polygon id="Fill-255" fill="#18B7A0" points="297.0692 298.0423 319.1382 297.7783 320.1182 295.2903 301.1392 288.4223"></polygon>
                <path d="M296.5516,282.9954 C296.5516,282.9954 298.1326,288.0894 300.8096,289.2024 C303.4866,290.3144 317.2566,296.6724 317.2566,296.6724 L318.1246,291.0204 L296.5516,282.9954 Z" id="Fill-257" fill="#1BD9C4"></path>
                <path d="M290.8963,301.3977 C290.8963,301.3977 294.8413,296.2797 297.7333,296.4727 C300.6253,296.6667 317.2073,296.9987 317.2073,296.9987 L312.7263,303.8007 L290.8963,301.3977 Z" id="Fill-259" fill="#1BD9C4"></path>
                <path d="M305.6532,286.3811 C305.7862,286.5101 319.8122,288.8841 325.2452,288.6031 C330.6782,288.3211 332.1632,294.6091 331.7672,298.2671 C331.3832,301.8351 329.5782,308.8961 312.8302,304.9291 C299.1962,301.6991 294.4182,301.7851 294.4182,301.7851 L311.1232,297.7771 L317.5202,296.8401 L316.9442,296.5271 L306.3052,290.0171 L305.6532,286.3811 Z" id="Fill-261" fill="#1BD9C4"></path>
                <path d="M327.6581,288.6751 C327.0151,288.6531 323.7601,288.5471 321.6221,288.5391 C321.6221,288.5391 330.3071,290.2241 329.8571,297.7641 C329.8571,297.7641 328.3191,304.0501 324.5331,305.8651 C324.5331,305.8651 329.8431,305.5731 331.3441,303.8191 C332.6481,302.2931 332.5861,299.3191 332.6041,297.4501 C332.6271,295.0771 332.5981,291.8621 330.8141,290.0181 C330.0861,289.2651 328.8991,288.9191 327.8871,288.7021 C327.8071,288.6861 327.7381,288.6771 327.6581,288.6751" id="Fill-263" fill="#D0D2D3"></path>
                <path d="M321.6219,288.5393 C321.0229,288.5173 316.8499,302.3373 322.6659,306.0703 C322.8039,306.1593 323.6309,305.9833 323.8059,305.9713 C324.5699,305.9143 325.3339,305.8183 326.0779,305.6253 C327.9579,305.1363 329.5789,303.9833 330.0769,302.0213 C330.3929,300.7773 330.1519,299.3653 330.1109,298.0953 C330.0559,296.4133 330.0829,294.7023 329.9639,293.0303 C329.9159,292.3723 329.7509,291.6863 329.4199,291.1123 C328.5089,289.5323 326.4829,289.0663 324.8179,288.8133 C323.7609,288.6533 322.6899,288.5793 321.6219,288.5393" id="Fill-265" fill="#E6E7E8"></path>
                <path d="M303.0301,288.3118 C302.9581,288.3118 302.8881,288.3188 302.8261,288.3338 C302.6891,288.3678 302.5941,288.4348 302.5661,288.5178 C302.5371,288.6008 302.5701,288.7118 302.6561,288.8228 C302.7661,288.9638 302.9501,289.0868 303.1601,289.1608 C303.5771,289.3058 303.9611,289.2078 304.0241,289.0258 C304.0881,288.8398 303.8471,288.5268 303.4301,288.3818 C303.2971,288.3348 303.1581,288.3118 303.0301,288.3118 M303.5591,289.7318 C303.3801,289.7318 303.1881,289.6998 302.9961,289.6328 C302.6931,289.5278 302.4321,289.3488 302.2611,289.1288 C302.0691,288.8818 302.0081,288.5998 302.0931,288.3538 C302.1791,288.1078 302.4031,287.9228 302.7071,287.8488 C302.9771,287.7818 303.2921,287.8038 303.5941,287.9098 C304.2671,288.1428 304.6641,288.7048 304.4971,289.1878 L304.4971,289.1888 C304.3771,289.5338 304.0061,289.7318 303.5591,289.7318" id="Fill-267" fill="#2E6B62"></path>
                <path d="M306.1639,289.8508 C306.1199,289.8508 306.0779,289.8538 306.0389,289.8598 C305.8999,289.8818 305.8009,289.9408 305.7649,290.0218 C305.6849,290.1998 305.8989,290.5318 306.3029,290.7108 C306.7079,290.8908 307.0969,290.8258 307.1749,290.6478 C307.2539,290.4698 307.0399,290.1368 306.6369,289.9568 C306.4789,289.8878 306.3129,289.8508 306.1639,289.8508 M306.7739,291.3188 C306.5599,291.3188 306.3289,291.2698 306.0999,291.1678 C305.4479,290.8778 305.1009,290.2858 305.3079,289.8188 C305.4129,289.5798 305.6509,289.4148 305.9599,289.3668 C306.2289,289.3218 306.5449,289.3698 306.8399,289.4998 C307.4909,289.7898 307.8389,290.3828 307.6319,290.8508 C307.4969,291.1538 307.1669,291.3188 306.7739,291.3188" id="Fill-269" fill="#2E6B62"></path>
                <path d="M309.3192,291.2512 C309.2752,291.2512 309.2332,291.2542 309.1942,291.2612 C309.0552,291.2822 308.9562,291.3422 308.9202,291.4222 C308.8942,291.4782 308.8972,291.5462 308.9282,291.6262 C309.0002,291.8132 309.2032,291.9982 309.4582,292.1112 C309.6612,292.2022 309.8842,292.2382 310.0552,292.2092 C310.1942,292.1882 310.2942,292.1282 310.3302,292.0482 C310.3552,291.9922 310.3522,291.9242 310.3212,291.8442 C310.2502,291.6572 310.0472,291.4722 309.7922,291.3582 C309.6342,291.2882 309.4682,291.2512 309.3192,291.2512 M309.9292,292.7192 C309.7112,292.7192 309.4772,292.6672 309.2552,292.5682 C308.8782,292.4012 308.5812,292.1162 308.4622,291.8062 C308.3822,291.6012 308.3832,291.3972 308.4632,291.2192 C308.5682,290.9802 308.8062,290.8162 309.1152,290.7672 C309.3852,290.7272 309.7012,290.7712 309.9952,290.9012 C310.3722,291.0682 310.6692,291.3542 310.7882,291.6642 C310.8672,291.8692 310.8662,292.0722 310.7872,292.2512 C310.6812,292.4892 310.4432,292.6532 310.1342,292.7032 C310.0682,292.7132 310.0002,292.7192 309.9292,292.7192" id="Fill-271" fill="#2E6B62"></path>
                <path d="M302.1883,297.7981 C302.1483,297.7981 302.1073,297.8001 302.0653,297.8041 C301.6263,297.8461 301.3173,298.0941 301.3353,298.2871 C301.3543,298.4821 301.7013,298.6671 302.1433,298.6241 C302.5833,298.5831 302.8903,298.3351 302.8723,298.1411 C302.8553,297.9661 302.5683,297.7981 302.1883,297.7981 M302.0143,299.1311 C301.3853,299.1311 300.8823,298.8011 300.8373,298.3351 C300.7903,297.8251 301.3083,297.3741 302.0183,297.3061 C302.7233,297.2391 303.3233,297.5851 303.3703,298.0941 C303.4173,298.6041 302.8993,299.0561 302.1903,299.1221 C302.1303,299.1281 302.0723,299.1311 302.0143,299.1311" id="Fill-273" fill="#2E6B62"></path>
                <path d="M305.6502,297.9026 L305.6362,297.9026 C305.1952,297.9076 304.8672,298.1296 304.8692,298.3236 C304.8722,298.5156 305.1962,298.7266 305.6292,298.7266 L305.6452,298.7266 C305.8682,298.7246 306.0812,298.6666 306.2302,298.5666 C306.3472,298.4896 306.4142,298.3936 306.4132,298.3056 C306.4102,298.1136 306.0842,297.9026 305.6502,297.9026 Z M305.6282,299.2266 C304.9262,299.2266 304.3762,298.8366 304.3692,298.3296 C304.3632,297.8186 304.9182,297.4116 305.6302,297.4026 L305.6502,297.4026 C306.3532,297.4026 306.9062,297.7946 306.9132,298.2996 C306.9162,298.5606 306.7672,298.8096 306.5062,298.9836 C306.2752,299.1366 305.9712,299.2236 305.6512,299.2266 L305.6282,299.2266 Z" id="Fill-275" fill="#2E6B62"></path>
                <path d="M309.1053,297.8635 L309.0883,297.8635 C308.8093,297.8665 308.5493,297.9585 308.4103,298.1005 C308.3503,298.1615 308.3213,298.2225 308.3223,298.2845 C308.3233,298.3605 308.3733,298.4255 308.4153,298.4665 C308.5553,298.6035 308.8093,298.6875 309.0823,298.6875 L309.0973,298.6875 C309.3203,298.6855 309.5333,298.6275 309.6823,298.5275 C309.7993,298.4505 309.8663,298.3555 309.8653,298.2665 C309.8623,298.0745 309.5383,297.8635 309.1053,297.8635 Z M309.0813,299.1875 C308.6773,299.1875 308.2983,299.0525 308.0653,298.8245 C307.9083,298.6705 307.8243,298.4855 307.8223,298.2905 C307.8193,298.0945 307.8993,297.9085 308.0513,297.7525 C308.2843,297.5135 308.6693,297.3685 309.0833,297.3635 L309.1053,297.3635 C309.8073,297.3635 310.3583,297.7545 310.3653,298.2605 C310.3683,298.5215 310.2193,298.7705 309.9593,298.9445 C309.7273,299.0975 309.4233,299.1845 309.1033,299.1875 L309.0813,299.1875 Z" id="Fill-277" fill="#2E6B62"></path>
                <path d="M302.1043,298.7141 C302.0143,298.7141 301.9233,298.6901 301.8413,298.6391 C301.6073,298.4931 301.5353,298.1861 301.6793,297.9511 C301.6993,297.9181 303.6893,294.6001 302.8003,288.8471 C302.7583,288.5741 302.9453,288.3181 303.2183,288.2761 C303.4903,288.2361 303.7473,288.4221 303.7893,288.6941 C304.7383,294.8401 302.6203,298.3321 302.5293,298.4791 C302.4343,298.6301 302.2713,298.7141 302.1043,298.7141" id="Fill-279" fill="#F9F9F9"></path>
                <path d="M305.6444,298.8938 C305.5624,298.8938 305.4804,298.8738 305.4034,298.8318 C305.1624,298.7008 305.0734,298.3968 305.2054,298.1548 C305.2184,298.1278 306.6094,295.4968 305.9734,290.3958 C305.9394,290.1228 306.1334,289.8728 306.4084,289.8378 C306.6704,289.7998 306.9314,289.9978 306.9654,290.2728 C307.6464,295.7278 306.1454,298.5208 306.0814,298.6368 C305.9904,298.8008 305.8204,298.8938 305.6444,298.8938" id="Fill-281" fill="#F9F9F9"></path>
                <path d="M309.0936,298.7757 C309.0166,298.7757 308.9396,298.7577 308.8656,298.7207 C308.6206,298.5957 308.5236,298.2957 308.6476,298.0497 C308.6576,298.0287 309.7266,295.8287 309.1216,291.5597 C309.0826,291.2867 309.2736,291.0337 309.5466,290.9947 C309.8226,290.9597 310.0726,291.1467 310.1126,291.4197 C310.7656,296.0347 309.5896,298.4047 309.5386,298.5037 C309.4496,298.6757 309.2756,298.7757 309.0936,298.7757" id="Fill-283" fill="#F9F9F9"></path>
                <path d="M236.8504,286.5149 C236.3254,286.9459 224.8794,295.1169 224.8794,295.1169 L226.7384,302.7979 L241.8214,297.6269 L236.8504,286.5149 Z" id="Fill-285" fill="#E0AF8D"></path>
                <path d="M227.6473,291.6516 C227.6473,291.6516 225.6103,287.6186 222.8993,288.6666 C220.1873,289.7146 219.1683,290.8586 219.1683,290.8586 L216.2323,295.6776 C216.2323,295.6776 227.1963,294.5586 227.3603,294.3616 C227.5233,294.1656 227.6473,291.6516 227.6473,291.6516" id="Fill-287" fill="#223547"></path>
                <path d="M230.6229,301.5393 C230.9869,303.0693 230.7589,304.7093 229.8749,306.0103 C229.3079,306.8443 228.4839,307.5183 227.3139,307.4323 C227.2849,307.4303 227.2569,307.4283 227.2269,307.4253 C225.0499,307.2553 223.0039,306.3273 221.3729,304.8743 L218.8949,302.6653 C218.8949,302.6653 229.9509,299.9223 230.1649,300.0623 C230.2659,300.1293 230.4529,300.8213 230.6229,301.5393" id="Fill-289" fill="#223547"></path>
                <path d="M232.6043,302.0862 C232.6043,302.0862 228.6323,294.7822 228.3393,290.3272 C228.3393,290.3272 227.4443,288.8772 226.6303,290.1462 C225.8173,291.4152 225.7343,288.8382 224.7053,289.7992 C223.6753,290.7602 221.9173,289.1742 222.0093,291.6672 C222.1013,294.1602 220.0423,295.2772 220.0423,295.2772 L220.7583,302.0252 L224.8023,303.3302 C224.8023,303.3302 225.6693,305.8862 226.8043,304.7922 C227.9383,303.6982 230.2283,305.6542 230.3403,303.9182 C230.4543,302.1822 232.9283,305.0792 232.6043,302.0862" id="Fill-291" fill="#E6E7E8"></path>
                <path d="M221.3094,303.6389 C221.3094,303.6389 229.7524,304.7569 228.5354,300.0919 C227.3184,295.4269 226.0404,292.7709 226.0404,292.7709 C226.0404,292.7709 225.1514,290.2979 222.0094,291.6669 C219.9354,292.5719 217.9354,293.7519 217.9354,293.7519 L221.3094,303.6389 Z" id="Fill-293" fill="#18B7A0"></path>
                <polygon id="Fill-295" fill="#18B7A0" points="221.3094 303.6389 199.3154 301.8009 198.5164 299.2499 217.9354 293.7519"></polygon>
                <path d="M222.8993,288.6663 C222.8993,288.6663 220.9593,293.6353 218.2093,294.5543 C215.4603,295.4733 201.2703,300.8323 201.2703,300.8323 L200.8083,295.1333 L222.8993,288.6663 Z" id="Fill-297" fill="#1BD9C4"></path>
                <path d="M227.2274,307.4251 C227.2274,307.4251 223.6584,302.0381 220.7584,302.0261 C217.8604,302.0121 201.2974,301.1611 201.2974,301.1611 L205.2814,308.2661 L227.2274,307.4251 Z" id="Fill-299" fill="#1BD9C4"></path>
                <path d="M213.5789,291.3948 C213.4369,291.5138 199.2769,292.8818 193.8779,292.2138 C188.4789,291.5458 186.5509,297.7108 186.6829,301.3878 C186.8129,304.9758 188.1099,312.1468 205.0989,309.3838 C218.9279,307.1338 223.6869,307.5608 223.6869,307.5608 L207.3099,302.3718 L200.9959,300.9808 L201.5939,300.7098 L212.6689,294.9738 L213.5789,291.3948 Z" id="Fill-301" fill="#1BD9C4"></path>
                <path d="M191.4666,292.1135 C192.1096,292.1375 195.3636,292.2635 197.4976,292.4085 C197.4976,292.4085 188.7126,293.4695 188.6246,301.0235 C188.6246,301.0235 189.7116,307.4025 193.3586,309.4835 C193.3586,309.4835 188.0826,308.8135 186.7106,306.9565 C185.5186,305.3415 185.7926,302.3795 185.9066,300.5145 C186.0536,298.1455 186.3116,294.9405 188.2226,293.2285 C189.0026,292.5295 190.2106,292.2695 191.2376,292.1255 C191.3176,292.1145 191.3866,292.1105 191.4666,292.1135" id="Fill-303" fill="#D0D2D3"></path>
                <path d="M197.4979,292.4085 C198.0959,292.4295 201.2739,306.5125 195.2059,309.8205 C195.0609,309.8995 194.2499,309.6655 194.0759,309.6395 C193.3169,309.5295 192.5619,309.3795 191.8349,309.1345 C189.9939,308.5125 188.4589,307.2465 188.1019,305.2545 C187.8759,303.9905 188.2169,302.5985 188.3489,301.3355 C188.5229,299.6615 188.6179,297.9535 188.8559,296.2935 C188.9499,295.6405 189.1639,294.9685 189.5349,294.4195 C190.5569,292.9095 192.6099,292.5895 194.2889,292.4555 C195.3549,292.3705 196.4289,292.3725 197.4979,292.4085" id="Fill-305" fill="#E6E7E8"></path>
                <path d="M215.9813,293.5042 C215.8763,293.5042 215.7643,293.5192 215.6543,293.5482 C215.4393,293.6072 215.2473,293.7162 215.1273,293.8502 C215.0333,293.9542 214.9933,294.0622 215.0153,294.1472 L215.0153,294.1482 C215.0313,294.2062 215.0773,294.2582 215.1503,294.3002 C215.3253,294.4002 215.5983,294.4162 215.8673,294.3452 C216.0823,294.2862 216.2743,294.1772 216.3943,294.0432 C216.4883,293.9392 216.5283,293.8312 216.5053,293.7462 C216.4903,293.6872 216.4443,293.6352 216.3713,293.5932 C216.2683,293.5342 216.1313,293.5042 215.9813,293.5042 M215.5433,294.8892 C215.3023,294.8892 215.0793,294.8362 214.9003,294.7332 C214.7103,294.6242 214.5843,294.4662 214.5333,294.2772 C214.4643,294.0252 214.5453,293.7482 214.7553,293.5152 C214.9413,293.3092 215.2133,293.1502 215.5233,293.0662 C215.9213,292.9582 216.3313,292.9932 216.6213,293.1592 C216.8103,293.2692 216.9373,293.4272 216.9883,293.6162 C217.0563,293.8672 216.9753,294.1452 216.7653,294.3782 C216.5803,294.5842 216.3073,294.7432 215.9983,294.8272 C215.8453,294.8682 215.6913,294.8892 215.5433,294.8892" id="Fill-307" fill="#2E6B62"></path>
                <path d="M212.7508,294.8176 C212.6258,294.8176 212.4858,294.8396 212.3428,294.8916 C212.0798,294.9866 211.8648,295.1576 211.7798,295.3386 C211.7438,295.4156 211.7358,295.4836 211.7578,295.5416 C211.7868,295.6246 211.8828,295.6906 212.0198,295.7216 C212.1968,295.7626 212.4158,295.7436 212.6228,295.6676 C213.0388,295.5176 213.2748,295.2006 213.2088,295.0176 C213.1658,294.8986 212.9858,294.8176 212.7508,294.8176 M212.2118,296.2426 C212.1058,296.2426 212.0028,296.2316 211.9058,296.2096 C211.6018,296.1376 211.3758,295.9576 211.2868,295.7116 C211.2208,295.5276 211.2338,295.3256 211.3268,295.1276 C211.4688,294.8256 211.7838,294.5616 212.1728,294.4216 C212.8428,294.1776 213.5048,294.3676 213.6798,294.8476 C213.8538,295.3296 213.4638,295.8956 212.7928,296.1376 C212.5998,296.2076 212.4008,296.2426 212.2118,296.2426" id="Fill-309" fill="#2E6B62"></path>
                <path d="M208.5096,296.7141 C208.5386,296.7971 208.6346,296.8621 208.7716,296.8941 C208.9456,296.9341 209.1646,296.9151 209.3746,296.8391 C209.5836,296.7641 209.7656,296.6391 209.8746,296.4951 C209.9586,296.3841 209.9906,296.2731 209.9606,296.1901 C209.9406,296.1321 209.8906,296.0841 209.8136,296.0481 C209.6316,295.9631 209.3576,295.9691 209.0956,296.0651 C208.6806,296.2141 208.4436,296.5311 208.5096,296.7141 M208.9646,297.4141 C208.8586,297.4141 208.7556,297.4031 208.6576,297.3811 C208.3536,297.3101 208.1276,297.1291 208.0386,296.8841 C207.8656,296.4021 208.2556,295.8361 208.9256,295.5941 C209.3136,295.4541 209.7256,295.4541 210.0256,295.5961 C210.2246,295.6891 210.3646,295.8351 210.4316,296.0201 C210.5196,296.2651 210.4616,296.5481 210.2736,296.7981 C210.1056,297.0191 209.8466,297.2011 209.5446,297.3101 C209.3516,297.3791 209.1536,297.4141 208.9646,297.4141" id="Fill-311" fill="#2E6B62"></path>
                <path d="M215.5145,303.3235 C215.4825,303.5155 215.7725,303.7845 216.2065,303.8565 C216.4255,303.8955 216.6475,303.8745 216.8115,303.8025 C216.9395,303.7475 217.0225,303.6655 217.0365,303.5785 C217.0465,303.5175 217.0275,303.4525 216.9775,303.3835 C216.8615,303.2195 216.6185,303.0905 216.3435,303.0455 C216.1245,303.0075 215.9035,303.0275 215.7395,303.0985 C215.6115,303.1545 215.5295,303.2365 215.5145,303.3235 M216.4235,304.3755 C216.3255,304.3755 216.2245,304.3675 216.1235,304.3495 C215.4225,304.2335 214.9375,303.7465 215.0205,303.2415 L215.0215,303.2415 C215.0645,302.9835 215.2535,302.7645 215.5405,302.6395 C215.7965,302.5295 216.1105,302.4975 216.4265,302.5525 C216.8325,302.6195 217.1915,302.8215 217.3845,303.0935 C217.5115,303.2705 217.5625,303.4685 217.5295,303.6605 C217.4865,303.9185 217.2965,304.1365 217.0095,304.2615 C216.8355,304.3375 216.6345,304.3755 216.4235,304.3755" id="Fill-313" fill="#2E6B62"></path>
                <path d="M212.6668,302.884 C212.2788,302.884 211.9858,303.058 211.9718,303.236 C211.9558,303.43 212.2668,303.673 212.7058,303.71 C212.9318,303.729 213.1458,303.691 213.3038,303.606 C213.4268,303.539 213.5018,303.45 213.5098,303.363 C213.5248,303.169 213.2148,302.925 212.7738,302.888 C212.7368,302.885 212.7018,302.884 212.6668,302.884 M212.8158,304.215 C212.7668,304.215 212.7158,304.212 212.6648,304.208 C211.9538,304.149 211.4318,303.703 211.4738,303.195 C211.5168,302.686 212.1038,302.34 212.8148,302.39 C213.5258,302.449 214.0498,302.895 214.0078,303.404 C213.9858,303.663 213.8148,303.898 213.5398,304.046 C213.3338,304.156 213.0818,304.215 212.8158,304.215" id="Fill-315" fill="#2E6B62"></path>
                <path d="M208.5301,302.9495 C208.5141,303.1435 208.8251,303.3875 209.2651,303.4255 C209.5431,303.4505 209.8121,303.3825 209.9641,303.2525 C210.0281,303.1975 210.0631,303.1385 210.0681,303.0785 C210.0841,302.8835 209.7731,302.6395 209.3341,302.6025 C209.1121,302.5885 208.8951,302.6235 208.7361,302.7075 C208.6121,302.7735 208.5381,302.8625 208.5301,302.9495 M209.3721,303.9285 C209.3231,303.9285 209.2741,303.9275 209.2241,303.9235 C208.5131,303.8635 207.9901,303.4185 208.0321,302.9085 C208.0531,302.6485 208.2241,302.4145 208.5001,302.2665 C208.7461,302.1355 209.0571,302.0795 209.3751,302.1045 C210.0861,302.1645 210.6081,302.6095 210.5661,303.1185 C210.5511,303.3125 210.4541,303.4915 210.2881,303.6335 C210.0651,303.8225 209.7301,303.9285 209.3721,303.9285" id="Fill-317" fill="#2E6B62"></path>
                <path d="M216.2752,303.9505 C216.0952,303.9505 215.9222,303.8535 215.8332,303.6835 C215.7532,303.5315 213.8882,299.8975 215.2732,293.8355 C215.3352,293.5675 215.5992,293.3945 215.8722,293.4595 C216.1412,293.5205 216.3092,293.7885 216.2482,294.0575 C214.9522,299.7325 216.7002,303.1835 216.7172,303.2185 C216.8452,303.4635 216.7512,303.7645 216.5062,303.8925 C216.4322,303.9315 216.3532,303.9505 216.2752,303.9505" id="Fill-319" fill="#F9F9F9"></path>
                <path d="M212.7323,303.8782 C212.5443,303.8782 212.3633,303.7712 212.2783,303.5882 C212.2223,303.4682 210.9243,300.5742 211.9933,295.1832 C212.0453,294.9112 212.3163,294.7332 212.5803,294.7892 C212.8513,294.8432 213.0273,295.1062 212.9733,295.3762 C211.9683,300.4532 213.1733,303.1422 213.1863,303.1682 C213.3013,303.4192 213.1933,303.7162 212.9423,303.8322 C212.8743,303.8632 212.8023,303.8782 212.7323,303.8782" id="Fill-321" fill="#F9F9F9"></path>
                <path d="M209.2987,303.513 C209.1047,303.513 208.9197,303.4 208.8397,303.209 C208.7957,303.107 207.7917,300.659 208.7727,296.102 C208.8317,295.831 209.0937,295.667 209.3667,295.718 C209.6367,295.777 209.8087,296.042 209.7507,296.313 C208.8427,300.528 209.7517,302.798 209.7607,302.821 C209.8657,303.076 209.7457,303.367 209.4917,303.474 C209.4287,303.5 209.3627,303.513 209.2987,303.513" id="Fill-323" fill="#F9F9F9"></path>
                <path d="M221.3407,199.0642 C217.9827,198.9862 214.6197,198.9492 211.3127,199.4612 C208.0827,199.9622 204.8757,200.7762 201.8327,202.0092 C198.8067,203.2352 195.8037,204.9192 193.6167,207.4502 C191.4447,209.9652 190.4737,213.1872 190.9137,216.5292 C191.0337,217.4392 191.2437,218.3362 191.5197,219.2102 C197.0157,236.6852 238.0927,207.3352 238.0927,207.3352 L235.2337,199.0942 C232.3677,199.1122 229.5027,199.1292 226.6387,199.1472 C224.8797,199.1572 223.1117,199.1052 221.3407,199.0642" id="Fill-325" fill="#F7C9A6"></path>
                <path d="M233.2909,198.283 C233.2909,198.283 234.6199,193.304 238.9829,190.605 C242.7079,188.302 244.4999,185.987 245.3539,187.404 C246.8389,189.87 244.7359,190.974 244.7359,190.974 C243.9749,191.652 243.8069,192.92 242.3399,193.372 L233.2909,198.283 Z" id="Fill-327" fill="#F7C9A6"></path>
                <path d="M241.0702,181.6101 L268.8282,181.6101 L265.2372,208.7131 C265.0552,210.0881 263.9072,211.1071 262.5602,211.0891 L246.8882,210.8761 C245.5552,210.8581 244.4392,209.8281 244.2772,208.4641 L241.0702,181.6101 Z" id="Fill-329" fill="#A6A8AB"></path>
                <path d="M241.0702,181.6101 L241.0702,181.2251 C241.0702,180.1961 241.8802,179.3611 242.8792,179.3611 L266.8412,179.3611 C267.9382,179.3611 268.8282,180.2791 268.8282,181.4101 L268.8282,181.6101 L241.0702,181.6101 Z" id="Fill-331" fill="#58595B"></path>
                <path d="M257.2323,191.7068 C257.2323,193.4368 256.1093,194.8388 254.7233,194.8388 C253.3373,194.8388 252.2143,193.4368 252.2143,191.7068 C252.2143,189.9778 253.3373,188.5748 254.7233,188.5748 C256.1093,188.5748 257.2323,189.9778 257.2323,191.7068" id="Fill-333" fill="#D0D2D3"></path>
                <path d="M242.3397,193.3718 C242.0677,193.4348 241.6687,194.1188 241.5347,194.3328 C241.3057,194.7028 241.3587,195.4008 241.8397,195.7718 C242.1357,196.0008 242.6967,195.8548 243.0157,195.7828 C243.9277,195.5778 244.8047,195.1858 245.6507,194.8008 C248.4067,193.5448 251.0927,192.1088 253.7527,190.6688 C255.0447,189.9688 256.3037,189.1558 257.6717,188.6198 C258.5007,188.2948 260.2357,187.6058 260.9237,188.5488 C260.9237,188.5488 263.7927,190.6958 257.9947,193.4668 C257.7417,193.5878 257.4787,193.6958 257.2607,193.8708 L249.8117,197.8178 L255.6067,197.0538 C255.6067,197.0538 261.8607,195.5488 261.9887,198.6688 C262.1037,201.4448 250.7437,201.8438 250.7437,201.8438 C250.7437,201.8438 257.3947,203.2338 251.4547,206.7998 C251.4547,206.7998 255.0127,210.0648 247.0997,211.3338 C244.3877,211.7688 238.0927,212.4218 234.8527,209.9918 C232.5157,208.2388 231.8317,208.5348 231.3217,203.8538 C230.4907,196.2398 242.3297,193.3738 242.3397,193.3718" id="Fill-335" fill="#F7C9A6"></path>
                <path d="M253.95,235.5237 L281.435,231.0027 C282.293,230.8617 283.07,231.5277 283.062,232.3957 L283.062,237.1697 C283.062,237.1697 265.43,239.9737 254.723,247.7847 L253.95,235.5237 Z" id="Fill-337" fill="#1F303A"></path>
                <path d="M227.5575,231.0676 L254.7235,235.3966 L254.7235,250.4446 C254.7235,250.4446 241.9385,240.6816 225.6445,238.9296 L225.6445,232.8526 C225.5475,231.7766 226.4905,230.8976 227.5575,231.0676" id="Fill-339" fill="#283D4C"></path>
                <path d="M225.6444,232.8528 L251.6774,237.3708 C251.6774,237.3708 255.5994,238.2218 257.8044,237.3708 L283.0624,232.3958 L283.0624,236.5648 L254.9494,242.6718 L225.6444,237.5348 L225.6444,232.8528 Z" id="Fill-341" fill="#C17857"></path>
                <path d="M230.5536,238.9231 L230.5286,238.9231 C229.9556,238.9231 229.4886,238.4541 229.4886,237.8831 L229.4886,232.9791 C229.4886,232.4061 229.9556,231.9391 230.5286,231.9391 L230.5536,231.9391 C231.1256,231.9391 231.5946,232.4061 231.5946,232.9791 L231.5946,237.8831 C231.5946,238.4541 231.1256,238.9231 230.5536,238.9231" id="Fill-343" fill="#375266"></path>
                <path d="M239.1581,240.6321 L239.1331,240.6321 C238.5601,240.6321 238.0931,240.1641 238.0931,239.5921 L238.0931,234.6881 C238.0931,234.1151 238.5601,233.6481 239.1331,233.6481 L239.1581,233.6481 C239.7301,233.6481 240.1981,234.1151 240.1981,234.6881 L240.1981,239.5921 C240.1981,240.1641 239.7301,240.6321 239.1581,240.6321" id="Fill-345" fill="#375266"></path>
                <path d="M266.4959,241.0266 L266.4719,241.0266 C265.8989,241.0266 265.4309,240.5576 265.4309,239.9856 L265.4309,235.0826 C265.4309,234.5096 265.8989,234.0426 266.4719,234.0426 L266.4959,234.0426 C267.0679,234.0426 267.5369,234.5096 267.5369,235.0826 L267.5369,239.9856 C267.5369,240.5576 267.0679,241.0266 266.4959,241.0266" id="Fill-347" fill="#375266"></path>
                <path d="M276.5555,238.9231 L276.5315,238.9231 C275.9585,238.9231 275.4905,238.4541 275.4905,237.8831 L275.4905,232.9791 C275.4905,232.4061 275.9585,231.9391 276.5315,231.9391 L276.5555,231.9391 C277.1275,231.9391 277.5965,232.4061 277.5965,232.9791 L277.5965,237.8831 C277.5965,238.4541 277.1275,238.9231 276.5555,238.9231" id="Fill-349" fill="#375266"></path>
                <path d="M253.1795,238.6399 C252.4995,238.6399 251.9475,239.1929 251.9475,239.8719 C251.9475,240.6189 252.4995,241.1719 253.1795,241.1719 L256.2355,241.1719 C256.9145,241.1719 257.4675,240.6189 257.4675,239.9389 C257.4675,239.1929 256.9145,238.6399 256.2355,238.6399 L253.1795,238.6399 Z M256.2355,244.1719 L253.1795,244.1719 C250.8455,244.1719 248.9475,242.2729 248.9475,239.9389 C248.9475,237.5379 250.8455,235.6399 253.1795,235.6399 L256.2355,235.6399 C258.5695,235.6399 260.4675,237.5379 260.4675,239.8719 C260.4675,242.2729 258.5695,244.1719 256.2355,244.1719 Z" id="Fill-351" fill="#1F303A"></path>
                <path d="M352.8593,88.6287 L304.0173,88.6287 C298.0223,88.6287 293.1633,83.7687 293.1633,77.7747 L293.1633,28.9327 C293.1633,22.9377 298.0223,18.0777 304.0173,18.0777 L352.8593,18.0777 C358.8543,18.0777 363.7133,22.9377 363.7133,28.9327 L363.7133,77.7747 C363.7133,83.7687 358.8543,88.6287 352.8593,88.6287" id="Fill-353" fill="#FFFFFF"></path>
                <path d="M307.8299,87.2376 L308.9039,95.3136 C308.9939,95.9856 309.3399,96.6226 309.9169,96.9786 C310.9839,97.6386 312.1459,97.1436 313.9439,96.1156 L326.3239,87.4476 L307.8299,87.2376 Z" id="Fill-355" fill="#FFFFFF"></path>
                <path d="M352.5096,38.2815 L304.8806,38.2815 C302.6076,38.2815 300.7646,36.4385 300.7646,34.1655 L300.7646,34.0655 C300.7646,31.7925 302.6076,29.9495 304.8806,29.9495 L352.5096,29.9495 C354.7816,29.9495 356.6246,31.7925 356.6246,34.0655 L356.6246,34.1655 C356.6246,36.4385 354.7816,38.2815 352.5096,38.2815" id="Fill-357" fill="#E6E7E8"></path>
                <path d="M352.5096,49.468 L304.8806,49.468 C302.6076,49.468 300.7646,47.625 300.7646,45.352 L300.7646,45.252 C300.7646,42.979 302.6076,41.136 304.8806,41.136 L352.5096,41.136 C354.7816,41.136 356.6246,42.979 356.6246,45.252 L356.6246,45.352 C356.6246,47.625 354.7816,49.468 352.5096,49.468" id="Fill-359" fill="#E6E7E8"></path>
                <path d="M313.8416,78.3445 C313.4056,78.3445 312.9696,78.1785 312.6366,77.8455 L303.4976,68.7075 C302.8326,68.0415 302.8326,66.9625 303.4976,66.2975 C304.1636,65.6315 305.2416,65.6325 305.9076,66.2975 L315.0466,75.4355 C315.7126,76.1005 315.7126,77.1795 315.0466,77.8455 C314.7136,78.1785 314.2786,78.3445 313.8416,78.3445" id="Fill-361" fill="#E6E7E8"></path>
                <path d="M304.703,78.3445 C304.267,78.3445 303.831,78.1785 303.498,77.8455 C302.833,77.1795 302.833,76.1005 303.498,75.4355 L312.637,66.2975 C313.303,65.6325 314.381,65.6315 315.047,66.2975 C315.713,66.9625 315.713,68.0415 315.047,68.7075 L305.908,77.8455 C305.575,78.1785 305.14,78.3445 304.703,78.3445" id="Fill-363" fill="#E6E7E8"></path>
                <path d="M345.5936,78.7439 C345.1696,78.7439 344.7586,78.5859 344.4446,78.2969 L340.8066,74.9719 C340.1116,74.3359 340.0636,73.2579 340.6986,72.5639 C341.3336,71.8689 342.4116,71.8209 343.1066,72.4559 L345.4196,74.5709 L352.4696,66.0189 C353.0686,65.2929 354.1426,65.1889 354.8686,65.7879 C355.5946,66.3869 355.6986,67.4609 355.0996,68.1869 L346.9076,78.1239 C346.6126,78.4839 346.1796,78.7069 345.7136,78.7399 C345.6736,78.7429 345.6336,78.7439 345.5936,78.7439" id="Fill-365" fill="#1BD9C4"></path>
                <path d="M192.0457,127.2742 L154.8507,127.2742 C150.4827,127.2742 146.9417,123.7332 146.9417,119.3652 L146.9417,82.1702 C146.9417,77.8032 150.4827,74.2622 154.8507,74.2622 L192.0457,74.2622 C196.4127,74.2622 199.9537,77.8032 199.9537,82.1702 L199.9537,119.3652 C199.9537,123.7332 196.4127,127.2742 192.0457,127.2742" id="Fill-367" fill="#094074"></path>
                <path d="M176.0838,126.2425 L184.1348,132.9835 C185.3668,133.9485 186.3868,134.2285 187.2798,133.5825 C187.6528,133.3125 187.9058,132.9065 188.0558,132.4705 L190.1268,126.4015 L176.0838,126.2425 Z" id="Fill-369" fill="#094074"></path>
                <path d="M172.1444,92.7307 C168.9774,92.7307 166.4004,95.3067 166.4004,98.4737 C166.4004,101.6407 168.9774,104.2177 172.1444,104.2177 C175.3114,104.2177 177.8874,101.6407 177.8874,98.4737 C177.8874,95.3067 175.3114,92.7307 172.1444,92.7307 M172.1444,110.2177 C165.6684,110.2177 160.4004,104.9497 160.4004,98.4737 C160.4004,91.9987 165.6684,86.7307 172.1444,86.7307 C178.6204,86.7307 183.8874,91.9987 183.8874,98.4737 C183.8874,104.9497 178.6204,110.2177 172.1444,110.2177" id="Fill-371" fill="#FFFFFF"></path>
                <path d="M184.9071,114.1673 C184.1391,114.1673 183.3721,113.8743 182.7861,113.2883 L176.2391,106.7413 C175.0671,105.5703 175.0671,103.6703 176.2391,102.4993 C177.4111,101.3273 179.3091,101.3273 180.4811,102.4993 L187.0281,109.0463 C188.2001,110.2173 188.2001,112.1173 187.0281,113.2883 C186.4421,113.8743 185.6751,114.1673 184.9071,114.1673" id="Fill-373" fill="#FFFFFF"></path>
                <path d="M355.8104,172.5081 L326.9664,172.5081 C322.0284,172.5081 318.0254,168.5051 318.0254,163.5671 L318.0254,134.7231 C318.0254,129.7851 322.0284,125.7821 326.9664,125.7821 L355.8104,125.7821 C360.7474,125.7821 364.7504,129.7851 364.7504,134.7231 L364.7504,163.5671 C364.7504,168.5051 360.7474,172.5081 355.8104,172.5081" id="Fill-375" fill="#1BD9C4"></path>
                <path d="M329.8221,172.0818 L330.9451,178.2158 C331.0451,178.7638 331.3581,179.2748 331.8531,179.5288 C332.6781,179.9528 333.6061,179.5758 334.8011,178.8228 L343.8651,172.2418 L329.8221,172.0818 Z" id="Fill-377" fill="#1BD9C4"></path>
                <path d="M358.0673,149.1453 C358.0673,158.3563 350.5993,165.8233 341.3883,165.8233 C332.1773,165.8233 324.7103,158.3563 324.7103,149.1453 C324.7103,139.9343 332.1773,132.4673 341.3883,132.4673 C350.5993,132.4673 358.0673,139.9343 358.0673,149.1453" id="Fill-379" fill="#1BC1A9"></path>
                <path d="M370.9647,129.6087 C370.9647,135.8597 365.8977,140.9267 359.6467,140.9267 C353.3957,140.9267 348.3277,135.8597 348.3277,129.6087 C348.3277,123.3577 353.3957,118.2907 359.6467,118.2907 C365.8977,118.2907 370.9647,123.3577 370.9647,129.6087" id="Fill-381" fill="#FF0000"></path>
                <path d="M359.2509,128.8323 L359.6599,128.8323 C359.9249,128.8323 360.1819,128.8083 360.4339,128.7593 C360.6839,128.7103 360.9059,128.6263 361.0999,128.5073 C361.2939,128.3883 361.4489,128.2273 361.5679,128.0233 C361.6879,127.8193 361.7469,127.5673 361.7469,127.2673 C361.7469,127.0283 361.7019,126.8143 361.6139,126.6243 C361.5259,126.4343 361.4049,126.2723 361.2509,126.1403 C361.0979,126.0073 360.9219,125.9033 360.7239,125.8293 C360.5249,125.7533 360.3159,125.7163 360.0969,125.7163 C359.6999,125.7163 359.3629,125.8173 359.0859,126.0193 C358.8099,126.2223 358.5999,126.5033 358.4589,126.8643 L357.2969,126.4553 C357.5249,125.8923 357.8929,125.4503 358.3989,125.1283 C358.9059,124.8073 359.4889,124.6463 360.1479,124.6463 C360.5359,124.6463 360.9029,124.7013 361.2509,124.8113 C361.5989,124.9213 361.9029,125.0823 362.1649,125.2943 C362.4259,125.5063 362.6329,125.7703 362.7859,126.0873 C362.9389,126.4053 363.0149,126.7703 363.0149,127.1853 C363.0149,127.4493 362.9729,127.6963 362.8889,127.9253 C362.8049,128.1543 362.6909,128.3613 362.5459,128.5473 C362.3999,128.7323 362.2269,128.8913 362.0239,129.0233 C361.8209,129.1553 361.6019,129.2523 361.3629,129.3143 L361.3629,129.3403 C361.6369,129.3933 361.8899,129.4853 362.1229,129.6173 C362.3549,129.7493 362.5569,129.9143 362.7239,130.1123 C362.8909,130.3103 363.0219,130.5363 363.1199,130.7903 C363.2169,131.0463 363.2649,131.3233 363.2649,131.6213 C363.2649,132.0873 363.1779,132.4993 363.0039,132.8543 C362.8289,133.2103 362.5989,133.5073 362.3109,133.7453 C362.0219,133.9823 361.6889,134.1623 361.3109,134.2853 C360.9329,134.4083 360.5449,134.4703 360.1479,134.4703 C359.4089,134.4703 358.7579,134.3023 358.1939,133.9683 C357.6319,133.6343 357.2229,133.1143 356.9669,132.4103 L358.1549,132.0143 C358.2959,132.4193 358.5359,132.7493 358.8749,133.0043 C359.2139,133.2603 359.6289,133.3873 360.1229,133.3873 C360.3599,133.3873 360.5919,133.3503 360.8149,133.2753 C361.0409,133.2003 361.2399,133.0883 361.4169,132.9383 C361.5929,132.7893 361.7329,132.6043 361.8389,132.3833 C361.9439,132.1643 361.9979,131.9043 361.9979,131.6043 C361.9979,131.2793 361.9269,131.0063 361.7859,130.7863 C361.6459,130.5663 361.4629,130.3883 361.2379,130.2513 C361.0139,130.1153 360.7609,130.0183 360.4789,129.9603 C360.1969,129.9033 359.9199,129.8753 359.6469,129.8753 L359.2509,129.8753 L359.2509,128.8323 Z" id="Fill-383" fill="#FFFFFF"></path>
            </g>
        </g>
    </g>
</svg>