<?xml version="1.0" encoding="UTF-8"?>
<svg width="203px" height="45px" viewBox="0 0 203 45" version="1.1" xmlns="http://www.w3.org/2000/svg" xmlns:xlink="http://www.w3.org/1999/xlink">
    <!-- Generator: Sketch 51.3 (57544) - http://www.bohemiancoding.com/sketch -->
    <title>Logo</title>
    <desc>Created with Sketch.</desc>
    <defs>
        <rect id="path-1" x="0" y="0" width="1440" height="101"></rect>
    </defs>
    <g id="----Symbols" stroke="none" stroke-width="1" fill="none" fill-rule="evenodd">
        <g id="nav-/-unscrolled-/-services" transform="translate(-35.000000, -28.000000)">
            <g>
                <mask id="mask-2" fill="white">
                    <use xlink:href="#path-1"></use>
                </mask>
                <g id="mask"></g>
                <g id="Logo" mask="url(#mask-2)" fill="#223547">
                    <g transform="translate(35.000000, 28.000000)">
                        <path d="M28.5750549,38.826787 L30.3589818,42.6418738 C27.6196794,43.7852649 24.7718115,44.3350006 21.963422,44.3350006 C13.5920427,44.336481 5.58287702,39.5176577 1.93705348,31.3999266 C-0.462241866,26.0580154 -0.638413902,20.1041902 1.44110699,14.6305201 C3.37061025,9.55656807 7.02679684,5.46118508 11.8061419,2.97898524 L13.5935231,6.79999385 C9.81100589,8.81190811 6.91428361,12.083181 5.37709624,16.1267487 C3.69877384,20.5478279 3.83990886,25.3582621 5.77829474,29.6747237 C9.68862307,38.377721 19.8029706,42.3832908 28.5750549,38.826787 Z M41.9249968,13.4352644 C44.3237986,18.7756951 44.4999707,24.7310008 42.4204498,30.2041774 C40.7421274,34.6188414 37.7575658,38.2927932 33.8605614,40.8075627 L32.0406105,36.9579323 C34.9555915,34.9386159 37.1974671,32.0942024 38.483967,28.7084423 C40.1652503,24.2868696 40.0216479,19.474955 38.0837555,15.1609608 C37.3963391,13.6306821 36.5016615,12.2331493 35.4480837,10.989582 L27.1591153,35.8041782 L20.9634853,22.5458754 L16.0434988,33.4374525 L10.8303856,21.1730166 L12.9271783,16.7114721 L16.3129384,24.6480963 L20.9427592,13.5092863 L26.2027529,24.5982549 L31.0768459,7.27072356 C28.3632043,5.63187949 25.2128338,4.70463228 21.9188609,4.70463228 C20.2819907,4.70463228 18.6717684,4.93410006 17.1104006,5.37773776 L15.2899562,1.53008127 C17.4336294,0.844145336 19.6528049,0.493281701 21.9188609,0.493281701 C30.541421,0.493281701 38.3926734,5.57315548 41.9249968,13.4352644 Z" id="Combined-Shape"></path>
                        <polygon id="Fill-7" points="65.2539248 24.2888929 62.8329164 16.580256 61.6584361 16.580256 59.2226233 24.3027103 56.7877975 16.580256 55.064075 16.580256 58.580607 27.7694009 59.7703851 27.7694009 62.2195218 20.060764 64.6410237 27.7694009 65.8465932 27.7694009 69.4134601 16.580256 67.703555 16.580256"></polygon>
                        <polygon id="Fill-9" points="75.9893651 27.7686607 77.6696614 27.7686607 77.6696614 16.5819832 75.9893651 16.5819832"></polygon>
                        <polygon id="Fill-11" points="86.7467651 16.5804534 85.0679493 16.5804534 85.0679493 27.7691049 91.6090146 27.7691049 91.6090146 26.2511632 86.7467651 26.2511632"></polygon>
                        <polygon id="Fill-12" points="99.8788853 16.5804534 98.2000694 16.5804534 98.2000694 27.7691049 104.741135 27.7691049 104.741135 26.2511632 99.8788853 26.2511632"></polygon>
                        <path d="M120.208398,22.1467989 C120.208398,22.7705564 120.101313,23.3474335 119.887143,23.8621322 C119.672973,24.3768309 119.375899,24.8258968 119.004803,25.1969931 C118.635187,25.5700633 118.197964,25.8636834 117.705966,26.0694642 C116.723449,26.4839866 115.500114,26.485467 114.510195,26.0625555 C114.012768,25.8518399 113.572585,25.5562459 113.201488,25.1831757 C112.831873,24.8120794 112.536279,24.3630135 112.320628,23.8483148 C112.106458,23.3336161 111.99888,22.7671021 111.99888,22.1606163 C111.99888,21.5630131 112.10251,21.0019274 112.306317,20.4921635 C112.512098,19.982893 112.798809,19.5353075 113.160036,19.1642112 C113.518795,18.7926215 113.954044,18.4970275 114.449991,18.2868054 C114.947417,18.0755963 115.494686,17.9690049 116.082419,17.9690049 C116.678049,17.9690049 117.2342,18.0755963 117.736561,18.2868054 C118.235962,18.4970275 118.676639,18.7926215 119.0428,19.1656917 C119.406988,19.5372814 119.697154,19.9809191 119.900961,20.4852547 C120.104767,20.9895904 120.208398,21.5477152 120.208398,22.1467989 M120.234552,18.0691811 C119.721334,17.5544824 119.103005,17.1448948 118.398317,16.8497943 C117.693629,16.5561742 116.914425,16.4056631 116.082419,16.4056631 C115.279035,16.4056631 114.515623,16.5561742 113.816363,16.8512747 C113.11661,17.1448948 112.501735,17.5544824 111.98901,18.0691811 C111.474312,18.5838798 111.066698,19.1967808 110.774558,19.8896255 C110.482912,20.585431 110.333881,21.3508171 110.333881,22.1606163 C110.333881,22.981272 110.484393,23.7530733 110.782947,24.4528267 C111.080515,25.1520865 111.493064,25.7704158 112.011217,26.2885689 C112.52937,26.8067219 113.147699,27.21779 113.846959,27.5079557 C114.548193,27.796641 115.310125,27.9432043 116.111535,27.9432043 C116.904556,27.9432043 117.661059,27.7931866 118.362293,27.4995666 C119.061553,27.2059465 119.679882,26.7929045 120.196555,26.2747515 C120.714214,25.7565984 121.127256,25.1382691 121.426304,24.4390092 C121.722885,23.7377754 121.87537,22.9709089 121.87537,22.1606163 C121.87537,21.3611801 121.728314,20.5992484 121.441602,19.8999885 C121.152917,19.1987548 120.747277,18.5819059 120.234552,18.0691811" id="Fill-13"></path>
                        <polygon id="Fill-14" points="139.78274 16.5804534 139.163423 16.5804534 136.714287 24.2890903 134.293278 16.5804534 133.118305 16.5804534 130.683479 24.3029077 128.248159 16.5804534 126.524437 16.5804534 130.040969 27.7691049 131.230747 27.7691049 133.679884 20.0609614 136.101386 27.7691049 137.306955 27.7691049 140.389226 18.100369 147.665575 18.100369 147.665575 27.7691049 149.359689 27.7691049 149.359689 18.100369 152.684751 18.100369 153.352921 16.5804534 140.873822 16.5804534"></polygon>
                        <path d="M163.674086,19.1748704 C163.784625,19.3870664 163.837921,19.6135733 163.837921,19.8657411 C163.837921,20.186996 163.779197,20.4667986 163.663723,20.7016947 C163.547755,20.9331364 163.383427,21.1300345 163.176165,21.2854804 C162.957061,21.4478351 162.696504,21.5736722 162.40091,21.6605246 C162.096927,21.7483638 161.767283,21.7932704 161.418393,21.7932704 L159.819027,21.7932704 L159.819027,18.1005664 L161.528439,18.1005664 C161.875848,18.1005664 162.199077,18.1469534 162.489243,18.2387405 C162.77398,18.3285537 163.017759,18.4548844 163.212683,18.6152651 C163.409581,18.7741653 163.560092,18.9572461 163.674086,19.1748704 M163.153959,22.9919311 C163.616842,22.8350048 164.031365,22.6099783 164.382228,22.323267 C164.737533,22.0331013 165.024245,21.6792768 165.238908,21.2731435 C165.454558,20.8591145 165.563124,20.3962311 165.563124,19.8948564 C165.563124,19.4063121 165.461467,18.9503374 165.25766,18.5372954 C165.055827,18.1296816 164.77257,17.7743767 164.414798,17.4822371 C164.062454,17.1935518 163.644477,16.9690188 163.176165,16.8135729 C162.710321,16.6601009 162.199077,16.5806508 161.654769,16.5806508 L158.139718,16.5806508 L158.139718,27.7693022 L159.819027,27.7693022 L159.819027,23.185375 L164.210991,27.7693022 L166.451386,27.7693022 L162.063864,23.2095554 C162.442362,23.1799467 162.80655,23.1074053 163.153959,22.9919311" id="Fill-15"></path>
                        <polygon id="Fill-16" points="174.387517 22.8330309 179.076555 22.8330309 179.076555 21.3131153 174.387517 21.3131153 174.387517 18.1005664 179.391395 18.1005664 179.391395 16.5806508 172.708701 16.5806508 172.708701 27.7693022 179.69143 27.7693022 179.69143 26.2508671 174.387517 26.2508671"></polygon>
                        <polygon id="Fill-17" points="188.341773 22.8330309 193.031305 22.8330309 193.031305 21.3131153 188.341773 21.3131153 188.341773 18.1005664 193.347132 18.1005664 193.347132 16.5806508 186.662957 16.5806508 186.662957 27.7693022 193.645687 27.7693022 193.645687 26.2508671 188.341773 26.2508671"></polygon>
                        <path d="M200.524538,18.3353637 C200.455451,18.3960617 200.368599,18.4256704 200.258553,18.4256704 L199.950129,18.4256704 L199.950129,17.796978 L200.30346,17.796978 C200.351327,17.796978 200.39574,17.8058607 200.432751,17.8231324 C200.474697,17.8418846 200.509241,17.8645847 200.537862,17.8936999 C200.565991,17.9198543 200.58573,17.9499566 200.600534,17.9889414 C200.615339,18.021511 200.621754,18.0526002 200.621754,18.0846764 C200.621754,18.1947222 200.590171,18.2771332 200.524538,18.3353637 M201.806104,19.3030762 C201.717771,19.5058961 201.594895,19.686016 201.439942,19.839488 C201.435007,19.8449163 201.429579,19.8498511 201.424151,19.8552793 L200.535888,18.8396994 C200.580795,18.8303233 200.625702,18.8165058 200.669128,18.7982471 C200.760915,18.7597558 200.840365,18.7069535 200.91192,18.6373729 C200.98002,18.5707533 201.036276,18.4893292 201.080196,18.3940877 C201.119674,18.3013137 201.139907,18.2006439 201.139907,18.0950394 C201.139907,17.9869675 201.120661,17.8843238 201.082663,17.7885889 C201.043678,17.6923605 200.986928,17.608469 200.915374,17.538395 C200.843326,17.468321 200.755487,17.4125578 200.65383,17.3720925 C200.552173,17.3321207 200.44114,17.3113946 200.324186,17.3113946 L199.442339,17.3113946 L199.442339,19.8661359 L199.950129,19.8661359 L199.950129,18.8954625 L200.760915,19.8399815 L200.783122,19.8661359 L201.412801,19.8661359 C201.265744,20.0048035 201.09352,20.1178102 200.900076,20.2021951 C200.497891,20.3788607 199.991581,20.3798476 199.583474,20.2021951 C199.378187,20.1128754 199.196586,19.9904926 199.043608,19.839488 C198.889149,19.686016 198.766272,19.5058961 198.67794,19.3030762 C198.58862,19.0997628 198.543713,18.8781907 198.543713,18.6437882 C198.543713,18.4103726 198.58862,18.1888004 198.67794,17.9849936 C198.766272,17.7806932 198.889642,17.5995864 199.043608,17.4451275 C199.19708,17.2916555 199.37868,17.1687792 199.583474,17.078966 C199.787281,16.9901397 200.008853,16.9457266 200.242762,16.9457266 C200.477164,16.9457266 200.698737,16.9901397 200.90057,17.078966 C201.105363,17.1687792 201.286964,17.2916555 201.439942,17.4451275 C201.594401,17.5995864 201.717277,17.7806932 201.806104,17.9849936 C201.894436,18.1878135 201.939343,18.4093856 201.939343,18.6437882 C201.939343,18.8786842 201.894436,19.1002563 201.806104,19.3030762 M202.218652,17.8043802 C202.105152,17.5438233 201.950693,17.3143555 201.75873,17.1228856 C201.562818,16.9289483 201.333844,16.7735024 201.075261,16.6609892 C200.551186,16.4369497 199.931377,16.4374431 199.407795,16.6614827 C199.149706,16.7735024 198.920238,16.9289483 198.726794,17.1223921 C198.53187,17.3158359 198.380372,17.5388885 198.265391,17.8043802 C198.153371,18.0664176 198.096621,18.3467138 198.096621,18.6388534 C198.096621,18.930006 198.153371,19.2098087 198.265391,19.4718461 C198.380372,19.7363509 198.531376,19.9598969 198.726794,20.1548211 C198.922212,20.3502389 199.151186,20.5046978 199.408289,20.6147437 C199.669833,20.7267634 199.950129,20.78302 200.242762,20.78302 C200.534408,20.78302 200.814211,20.7267634 201.075261,20.6147437 C201.33187,20.5051913 201.561832,20.3502389 201.759223,20.1548211 C201.951187,19.9613773 202.105645,19.7319096 202.218652,19.4718461 C202.330178,19.2098087 202.386929,18.930006 202.386929,18.6388534 C202.386929,18.3467138 202.330178,18.0664176 202.218652,17.8043802" id="Fill-18"></path>
                    </g>
                </g>
            </g>
        </g>
    </g>
</svg>