<svg xmlns="http://www.w3.org/2000/svg" width="130" height="24" viewBox="0 0 130 24">
    <g fill="#223547" fill-rule="evenodd">
        <path d="M76.93 15.275c.833 0 1.665.005 2.497-.003.17-.002.249.027.28.224.067.434.333.704.757.82.768.21 1.542.224 2.309.031.605-.152.88-.642.714-1.188-.12-.396-.433-.548-.797-.61-1.769-.301-3.539-.595-5.309-.89-1.632-.274-2.765-1.319-2.995-2.817-.347-2.265.548-3.932 2.81-4.653 1.01-.322 2.05-.442 3.098-.471 1.653-.046 3.303.01 4.908.484.98.29 1.874.733 2.52 1.577.461.601.66 1.299.748 2.039.016.132-.02.178-.16.178-1.665-.005-3.33-.003-4.993-.003-.086 0-.177.005-.188-.112-.07-.766-.643-.974-1.245-1.115a3.975 3.975 0 0 0-1.944.034c-.318.084-.602.232-.712.589-.13.421.052.777.481.854 1.113.2 2.231.37 3.344.574 1.16.213 2.35.283 3.47.694 2.008.736 2.65 2.252 2.43 4.16-.236 2.035-1.568 3.035-3.369 3.534-1.74.483-3.527.505-5.317.422-1.038-.048-2.068-.157-3.066-.473-1.188-.376-2.202-.98-2.73-2.197a4.05 4.05 0 0 1-.309-1.436c-.01-.191.045-.253.241-.25.843.01 1.685.004 2.528.004M109.747 11.485c-.754 0-1.508-.016-2.26.01-.256.008-.33-.09-.379-.322-.218-1.025-.756-1.795-1.775-1.969-1.805-.31-3.288.461-3.558 2.803-.106.924-.075 1.84.179 2.738.442 1.567 1.614 2.112 2.975 1.969 1.172-.124 1.851-.853 2.16-2.003.066-.24.155-.315.395-.313 1.508.014 3.015.011 4.523.004.226-.001.318.007.257.309-.148.722-.317 1.433-.607 2.106-.685 1.588-1.897 2.492-3.464 2.922-1.524.417-3.08.444-4.639.37-.926-.044-1.842-.178-2.73-.486-1.864-.647-3.087-1.95-3.608-3.938a10.69 10.69 0 0 1-.002-5.496c.602-2.293 2.1-3.613 4.258-4.135 1.685-.408 3.394-.39 5.105-.224.846.082 1.669.27 2.45.624 1.77.803 2.763 2.258 3.155 4.208.038.19.052.387.1.574.057.218-.024.255-.212.253-.774-.009-1.549-.004-2.323-.004M56.646 19.635c-.091.008-.183.022-.274.022-3.846 0-7.692-.003-11.537.007-.277.001-.338-.074-.338-.35.01-4.13.01-8.262 0-12.393-.001-.287.078-.343.343-.343 3.846.01 7.692.01 11.538 0 .282-.002.338.084.333.353a60.792 60.792 0 0 0 0 2.497c.006.28-.055.371-.35.37-2.323-.014-4.647-.002-6.971-.016-.29-.002-.362.084-.344.364.023.367.02.738 0 1.106-.013.232.07.272.277.27 2.17-.007 4.34.002 6.51-.011.275-.002.34.07.333.346-.02.853-.016 1.707-.001 2.56.004.246-.057.314-.302.313-2.16-.01-4.32-.002-6.479-.012-.257-.002-.364.042-.34.336.03.367.021.738.002 1.106-.012.23.045.3.282.299 1.574-.012 3.147-.007 4.72-.007l2.437.001c.06 0 .125-.018.174.037l-.013 3.145zM90.743 13.103c0-2.076.004-4.152-.005-6.228 0-.235.05-.3.275-.298 1.274.013 2.549.012 3.823.002.207-.002.265.06.264.28-.005 4.174-.005 8.348 0 12.522 0 .22-.058.284-.265.283-1.275-.01-2.55-.013-3.824 0-.23.003-.274-.07-.273-.3.009-2.087.005-4.174.005-6.26M124.473 14.563c-.359 1.373-1.308 2.124-2.702 2.172a4.042 4.042 0 0 1-1.322-.153c-1.084-.329-1.629-1.143-1.868-2.215a5.405 5.405 0 0 1-.138-1.369c-.003-.695.06-1.294.245-1.879.372-1.178 1.163-1.822 2.36-1.947 1.029-.107 1.999.014 2.756.833.485.525.684 1.184.784 1.882.128.9.115 1.796-.115 2.676m4.784-4.537c-.478-1.677-1.525-2.876-3.101-3.565-1.044-.457-2.149-.635-3.279-.69-1.562-.078-3.12-.086-4.654.274-2.384.558-3.946 1.999-4.507 4.476a10.833 10.833 0 0 0 .002 4.836c.502 2.22 1.833 3.658 3.962 4.32 1.261.392 2.56.47 3.869.457 1.148.015 2.29-.05 3.411-.327 2.124-.524 3.646-1.76 4.29-3.947.57-1.935.56-3.896.007-5.834M37.793 11.795c-.227.454-.651.57-1.098.592-.51.026-1.02.006-1.531.006v.01c-.511 0-1.022-.006-1.532.005-.183.004-.255-.038-.251-.241.012-.747.01-1.494 0-2.241-.003-.195.053-.251.246-.25.98.01 1.96-.01 2.939.01 1.144.02 1.746 1.068 1.227 2.109m4.63-2.79c-.347-1.086-1.093-1.78-2.169-2.133-.705-.231-1.432-.28-2.16-.282-2.996-.013-5.992-.002-8.988-.013-.278 0-.315.093-.314.34.01 2.066.005 4.133.005 6.199 0 2.077.004 4.153-.005 6.23 0 .24.049.321.305.318 1.326-.014 2.652-.015 3.977 0 .274.004.32-.087.317-.338-.014-1.139.003-2.277-.012-3.416-.004-.26.08-.308.315-.306 1.483.01 2.965.005 4.448.005.47 0 .938-.03 1.4-.118 1.473-.28 2.521-1.086 2.947-2.57a6.65 6.65 0 0 0-.067-3.915M67.457 11.795c-.226.454-.651.57-1.098.592-.51.026-1.02.006-1.531.006v.01c-.51 0-1.021-.006-1.532.005-.183.004-.254-.038-.251-.241.012-.747.01-1.494 0-2.241-.002-.195.054-.251.247-.25.98.01 1.959-.01 2.938.01 1.144.02 1.746 1.068 1.227 2.109m4.63-2.79c-.346-1.086-1.092-1.78-2.168-2.133-.706-.231-1.433-.28-2.16-.282-2.996-.013-5.992-.002-8.989-.013-.277 0-.315.093-.314.34.01 2.066.006 4.133.006 6.199 0 2.077.003 4.153-.006 6.23 0 .24.05.32.305.318a177.29 177.29 0 0 1 3.978 0c.273.004.32-.087.316-.338-.013-1.139.003-2.277-.012-3.416-.004-.26.08-.308.316-.306 1.482.01 2.965.005 4.447.005.47 0 .938-.03 1.4-.118 1.473-.28 2.522-1.086 2.948-2.57a6.65 6.65 0 0 0-.067-3.915"/>
        <g>
            <path d="M5.627 8.105c.158-.196.352-.118.544-.057.062.058.07.132.06.205-.097.719-.172 1.44-.17 2.164a.235.235 0 0 1-.075.176l-.62.004c-.023-.84.076-1.67.26-2.492M14.087 4.9c.058-.162.109-.33.285-.41.83.287 1.585.719 2.333 1.168-.079.213-.209.395-.34.577-.225-.016-.363-.188-.535-.297-.476-.3-.958-.59-1.468-.831-.103-.05-.227-.08-.275-.207M12.899 6.235c.73.661 1.433 1.349 2.06 2.11a3.614 3.614 0 0 1-.7.507l-1.917-2.209c.14-.199.351-.299.557-.408M9.691 10.597a15.549 15.549 0 0 1-.839-2.426c.172-.184.409-.216.676-.176.328.798.666 1.592 1.07 2.37a4.97 4.97 0 0 1-.907.232M9.101 21.072l.942-.067c.34.138.553.422.834.629.618.455 1.272.85 1.993 1.145.15.062.3.083.463.056a15.915 15.915 0 0 0 2.473-.631c.243-.081.162-.18.036-.292a13.46 13.46 0 0 1-1.426-1.513c-.069-.083-.175-.154-.126-.284l.684-.236c.16.025.208.16.28.263.362.513.785.982 1.188 1.466.158.19.316.255.568.142a16.16 16.16 0 0 0 2.374-1.302c.164-.11.152-.235.105-.39a29.512 29.512 0 0 0-.611-1.751c-.039-.104-.087-.203-.067-.316l.606-.414c.263.8.473 1.614.643 2.485.57-.417 1.06-.856 1.522-1.328.096-.1.205-.33.32-.243.122.092-.085.251-.166.362-1.924 2.636-4.559 4.226-7.932 4.707a11.736 11.736 0 0 1-5.45-.486c-.113-.037-.247-.047-.374-.216 1.41.227 2.767.362 4.159.172-1.126-.502-2.172-1.11-3.038-1.958"/>
            <path d="M9.721 20.997l-.915.07c-.676-1.089-1.28-2.224-1.699-3.482l.854-.008c.265.298.34.721.517 1.077.34.678.698 1.337 1.1 1.967.07.112.167.214.143.376M17.578 6.99l.371-.755c.821.812 1.597 1.675 2.246 2.68-.126.29-.25.582-.458.81-.105 0-.16-.086-.216-.17-.567-.853-1.177-1.66-1.866-2.386-.045-.048-.085-.1-.077-.18M22.812 12.417a3.266 3.266 0 0 1-.498.798c-.13-.037-.15-.154-.183-.255a12.275 12.275 0 0 0-.993-2.208c-.045-.079-.088-.157-.064-.253l.473-.774c.542.842.956 1.743 1.265 2.692M5.362 12.342l.83.01c.116.074.114.19.132.296.157.933.407 1.848.712 2.753.04.122.122.246.028.378-.314.086-.635.042-.954.043a14.496 14.496 0 0 1-.748-3.48M21.94 14.87l.692-.783c.215.693.203 1.395.14 2.097-.038.405-.08.811-.225 1.207-.027.074-.023.193-.16.186-.162-.009-.095-.13-.092-.2a8.27 8.27 0 0 0-.274-2.37c-.012-.047-.054-.09-.081-.136M15.701 9.725c.675.94 1.298 1.917 1.876 2.927-.242.208-.483.418-.766.563-.577-1.006-1.168-2.001-1.851-2.932l.741-.558zM10.783 14.96a38.3 38.3 0 0 1-1.058-3.214l.658-.276 1.087 3.18c-.22.135-.45.234-.687.31M14.137 19.322c-.6-1.006-1.216-2.002-1.74-3.056-.02-.041-.036-.085-.055-.127l.91-.307a46.552 46.552 0 0 0 1.708 3.183l-.823.307M18.213 13.215c.422.973.778 1.982 1.11 3.004-.173.186-.36.345-.56.486a37.576 37.576 0 0 0-1.186-2.95c.202-.197.408-.388.636-.54M13.536 3.6c-.033.088-.045.203-.167.224.042.196-.07.303-.208.397-.108.358-.393.572-.633.82-.218.225-.44.455-.729.59a.812.812 0 0 1-.45.32c-.579.452-1.244.722-1.91.992-.06.025-.1-.01-.146-.039-.093.216-.28.19-.455.19-.667.287-1.364.38-2.08.34-.166.09-.32.078-.461-.056-.543.088-.99-.136-1.362-.506-.39-.39-.41-.902-.262-1.406.27-.923.91-1.557 1.625-2.11 1.336-1.034 2.832-1.681 4.494-1.873.632-.074 1.27-.058 1.878.187.851.344 1.185 1.091.866 1.93m.241-2.219a3.479 3.479 0 0 0-1.504-.321c-2.615.015-4.928.919-6.95 2.62-.698.587-1.283 1.29-1.563 2.212-.333 1.094.05 1.952 1.068 2.386.28.119.57.198.871.23.121.014.247.008.237.19.206-.091.414-.023.62-.011.836-.054 1.66-.194 2.485-.343.207-.101.415-.199.649-.21.851-.375 1.724-.704 2.498-1.248.178-.146.36-.285.553-.408a6.863 6.863 0 0 0 1.619-1.704c.073-.182.209-.327.282-.509-.047-.237.107-.421.16-.632.254-1.013-.107-1.824-1.025-2.252"/>
            <path d="M6.235 6.997c.096.13.202.141.316.055.124-.881.353-1.714.556-2.562-.398.76-.68 1.6-.872 2.507M9.725 3.633c.825.219 1.644.462 2.435.857.116-.104.21-.225.175-.444-.856-.298-1.72-.486-2.61-.413M9.725 4.49c.454.595.939 1.138 1.377 1.745a.691.691 0 0 0 .368-.334c-.54-.559-1.096-1.083-1.745-1.411M9.007 4.49l-.154.022c-.012.87.12 1.733.257 2.595.237-.002.49.028.615-.212L9.007 4.49M20.35 8.525c.713-1.274.958-2.6.43-4.028.463.324.747.777.93 1.295.342.972.205 1.935-.102 2.883-.118.367-.285.716-.43 1.073-.03.349-.303.569-.429.866a12.98 12.98 0 0 1-2.739 2.821c-.258.18-.496.39-.758.564a19.682 19.682 0 0 1-4.311 2.204c-.282.09-.559.195-.84.287-1.34.413-2.697.722-4.1.773-.137.005-.269.044-.405.056-.289-.007-.586.084-.86-.086-1.265-.072-2.51-.241-3.649-.866-.947-.521-1.699-1.23-1.99-2.344-.068-.258-.123-.521-.084-.794.028.002.062-.001.065.006.367 1.176 1.243 1.807 2.297 2.22.933.365 1.91.49 2.907.468.233-.159.503-.047.75-.11 1.473-.067 2.903-.38 4.312-.814.301-.063.575-.208.866-.305a18.254 18.254 0 0 0 4.21-2.181c.27-.16.506-.372.767-.545 1.007-.795 1.942-1.663 2.658-2.754.186-.216.265-.516.506-.69"/>
            <path d="M5.879 13.124c-.837-.08-1.658-.23-2.404-.665-.896-.521-1.533-1.248-1.598-2.376-.041-.735.184-1.405.515-2.054.104.075.064.138.05.195-.329 1.474.269 2.661 1.622 3.21.563.23 1.145.357 1.753.31.185-.137.394-.081.596-.087 1.141-.017 2.242-.28 3.331-.606.262-.076.517-.17.774-.262a13.683 13.683 0 0 0 3.268-1.732c.215-.15.426-.306.632-.47.77-.632 1.483-1.322 2.035-2.176.163-.185.222-.45.423-.605.378-.715.546-1.465.319-2.27-.23-.813-.796-1.3-1.503-1.653.228-.04.425.046.618.125 1.02.417 1.825 1.066 2.077 2.25.15.706.014 1.394-.227 2.062-.043.12-.092.24-.138.36.011.299-.226.483-.31.738-.62.938-1.385 1.73-2.236 2.435a20.29 20.29 0 0 1-.78.59 17.44 17.44 0 0 1-3.61 1.884c-.272.11-.562.166-.834.279-1.211.367-2.442.598-3.708.6-.224-.008-.456.058-.665-.082M22.299 15.306a14.213 14.213 0 0 1-2.633 2.735c-.137.255-.403.357-.605.535-1.183.84-2.46 1.499-3.794 2.044-.24.1-.493.167-.73.278a18.387 18.387 0 0 1-4.277.98c-.314.036-.628.124-.94-.01-.837.018-1.671.005-2.498-.151-1.28-.242-2.453-.72-3.454-1.594-.255-.222-.484-.467-.623-.8 1.705 1.229 3.63 1.563 5.65 1.526.286-.153.598-.136.906-.142 1.496-.15 2.947-.51 4.369-.997.29-.094.574-.208.856-.325a19.479 19.479 0 0 0 4.026-2.157c.232-.137.43-.324.657-.47 1.036-.82 1.984-1.73 2.731-2.84.202-.27.333-.59.574-.83.59-1.028.848-2.15.877-3.363.163.098.161.247.186.372.267 1.346.016 2.62-.526 3.85-.077.177-.16.351-.24.527a1.61 1.61 0 0 1-.512.832"/>
        </g>
    </g>
</svg>
