<svg xmlns="http://www.w3.org/2000/svg" width="120" height="44" viewBox="0 0 120 44">
    <g fill="none" fill-rule="evenodd">
        <path fill="#223547" d="M36.302 16.763v-.84h1.118c.336 0 .392-.167.392-.39V5.126c0-3.3-.168-3.412-.951-3.412h-1.119v-.84h7.44c3.637 0 5.37 2.238 5.37 4.308 0 2.182-1.51 3.524-3.635 3.86 2.293 3.412 3.188 4.81 4.251 5.985.671.728.84.952 1.846.952v.84H48.05c-.56 0-1.007 0-1.286-.225-.728-.615-2.574-3.58-4.42-7.048h-1.566v3.02c0 3.301.168 3.413.951 3.413h1.175v.84h-6.601v-.057zm4.475-8.056h.895c2.014 0 3.86-.895 3.86-3.132 0-2.966-2.573-3.749-3.356-3.749h-1.12c-.279 0-.335.056-.335.336v6.545h.056zM53.239 15.932h1.175c.335 0 .391-.168.391-.392V5.135c0-3.3-.168-3.412-.951-3.412h-1.175v-.84h12.475c-.28 2.35-.28 2.574-.559 2.574-.335 0-.392-.224-.392-.56 0-.447-1.398-1.006-4.307-1.006H58.05c-.224-.056-.336.055-.336.28v5.482h2.35c2.685 0 2.797-.28 2.797-1.007V5.75h.783v4.42h-.783v-.895c0-.447-.112-.671-2.797-.671h-2.35v1.79c0 5.315.112 5.426.951 5.426h.895c1.399 0 4.867 0 5.65-1.398.112-.168.168-.336.392-.336.168 0 .28.112.28.28 0 .224-.112.615-.671 2.35l-11.972.055v-.839zM77.292 9.408h6.713v.839h-1.12c-.279 0-.447.056-.39.335v3.525c0 1.175.335 1.006.335 1.342 0 .224 0 .616-3.468 1.399-1.12.224-2.127.447-3.413.447-5.09 0-8.28-3.076-8.28-8.055 0-5.65 4.924-8.783 10.238-8.783 1.567 0 3.356.224 4.755.895-.28 1.958-.391 2.294-.671 2.294s-.392-.224-.392-.56c0-.504-1.398-1.622-4.083-1.622-1.175 0-6.881.615-6.881 7.384 0 3.524 1.958 7.385 6.265 7.385.951 0 1.902-.168 2.741-.56V13.66c0-3.3-.167-3.412-.95-3.412h-1.4v-.84zM88.981 11.022c-.56 1.398-1.454 3.636-1.454 4.363 0 .448.28.56.727.56h1.455v.839h-5.203v-.84h.839c.391 0 .56-.111.671-.447 1.063-2.741 3.693-8.67 6.322-14.713.447-.112 1.678-.391 2.07-.391.167 0 .28.168.28.336-.056.28-.56.335-.56.839 0 .895 2.853 8.223 4.252 12.027.783 2.014.95 2.35 1.845 2.35h.616v.839h-6.433v-.84h1.175c.503 0 .56-.111.39-.615l-1.51-4.307h-5.482zm2.91-6.937c-.952 1.958-1.735 3.972-2.518 5.93h4.587l-2.07-5.93zM107.362 10.384c0 5.314.112 5.426.951 5.426h.895c1.4 0 4.867 0 5.65-1.398.112-.168.168-.336.392-.336.168 0 .28.112.28.28 0 .224-.112.615-.671 2.35h-11.972v-.84h1.119c.335 0 .391-.168.391-.392V5.125c0-3.3-.168-3.412-.95-3.412h-1.176v-.84h6.602v.84h-1.12c-.39 0-.39.167-.39.391v8.28zM36.267 20.038h78.588v-.94H36.267zM114.855 31.72H36.267v-.94h78.543v.94zM117.682 33.96c.672 0 1.175.503 1.175 1.174 0 .671-.503 1.175-1.175 1.175a1.147 1.147 0 0 1-1.174-1.175c0-.671.503-1.175 1.174-1.175zm0 .167c-.503 0-.95.448-.95 1.007 0 .56.447 1.007.95 1.007.504 0 .951-.447.951-1.007 0-.56-.447-1.007-.95-1.007zm-.223 1.678h-.224V34.52c.112 0 .224-.056.391-.056.168 0 .336.056.392.112a.426.426 0 0 1 .112.28c0 .167-.112.28-.28.335.112 0 .168.112.224.336.056.224.056.28.056.335h-.168c0-.111-.056-.224-.056-.391-.056-.168-.112-.224-.28-.224h-.167v.56zm0-.727h.167c.168 0 .336-.056.336-.224 0-.112-.056-.224-.336-.224h-.167v.448zM36.951 23.315c0-.56-.168-.56-.28-.56h-.447v-.335h4.979l-.112.615c0 .112 0 .392-.168.392-.168.056-.224 0-.224-.112 0-.223-.112-.28-.28-.335-.503-.168-.95-.168-1.733-.168-.113 0-.169 0-.169.168v2.013h.56c1.063 0 1.119-.167 1.119-.391v-.336h.335v1.678h-.335v-.167c0-.28 0-.448-.84-.448h-.839v1.175c0 1.287.056 1.454.28 1.454.895 0 2.126-.056 2.406-.615.056-.112.056-.112.168-.112.111 0 .167.056.167.168 0 .112-.167.727-.28 1.007h-4.81v-.336c.447 0 .503 0 .503-.112v-4.643zM47.333 26.095v-2.74c0-.393-.056-.616-.28-.616h-.447v-.336h1.79v.336h-.392c-.056 0-.168 0-.168.111v5.595a.12.12 0 0 1-.111.112c-.168-.056-.28-.224-.392-.28l-4.307-4.475v3.636c0 .391.055.615.28.615h.447v.336h-1.79v-.336h.335c.112 0 .224 0 .224-.112v-4.028c.056-1.174-.671-1.174-.895-1.174v-.336h2.126l3.58 3.692zM53.257 28.417H49.79v-.336c.783 0 .895 0 .895-.112v-5.146h-.168c-1.399 0-1.566.392-1.622.503-.112.168-.168.224-.28.224-.112 0-.168-.056-.168-.112 0-.112.112-.503.336-1.063h5.314c.168.56.336.951.336 1.063 0 .112-.056.112-.168.112-.112 0-.168-.112-.223-.224-.056-.111-.224-.503-1.623-.503h-.168v4.308c0 .167 0 .895.224.895h.783v.39zM55.54 23.315c0-.56-.168-.56-.28-.56h-.448v-.335h4.979l-.112.615c0 .112 0 .392-.168.392-.168.056-.223 0-.223-.112 0-.223-.112-.28-.28-.335-.504-.168-.951-.168-1.734-.168-.113 0-.168 0-.168.168v2.013h.559c1.063 0 1.119-.167 1.119-.391v-.336h.336v1.678h-.336v-.167c0-.28 0-.448-.84-.448h-.838v1.175c0 1.287.055 1.454.28 1.454.895 0 2.125-.056 2.405-.615.056-.112.056-.112.168-.112.112 0 .167.056.167.168 0 .112-.167.727-.279 1.007h-4.811v-.336c.448 0 .503 0 .503-.112v-4.643zM62.764 27.159c0 .168 0 .895.224.895h.56v.336h-2.854v-.336c.448 0 .504 0 .504-.112V23.3c0-.56-.168-.56-.28-.56h-.448v-.335h3.134c.223 0 2.181 0 2.181 1.846 0 .28-.28 1.119-1.287 1.175.448.839 1.063 1.79 1.623 2.405.112.168.223.224.503.224v.336h-1.398c-.392 0-.504 0-.616-.112-.391-.448-1.063-1.79-1.342-2.573h-.504v1.454zm0-1.846h.28c.727 0 1.175-.391 1.175-1.175 0-.671-.504-1.398-1.231-1.398-.112.055-.224.055-.224.167v2.406zM70.797 28.417H67.33v-.336c.783 0 .895 0 .895-.112v-5.146h-.168c-1.398 0-1.566.392-1.622.503-.112.168-.168.224-.28.224-.112 0-.168-.056-.168-.112 0-.112.112-.503.336-1.063h5.314c.168.56.336.951.336 1.063 0 .056-.056.112-.168.112-.112 0-.168-.112-.224-.224-.055-.111-.223-.503-1.622-.503h-.168v4.308c0 .167 0 .895.224.895h.783v.39zM72.81 26.36c-.056.111-.504 1.23-.504 1.566 0 .168.112.168.28.168h.559v.336h-1.958v-.336h.28c.224 0 .28 0 .336-.168.167-.56 2.237-5.259 2.35-5.482.223-.056.782-.224.894-.224.112 0 .112.056.112.168 0 .167-.224.167-.224.335.056.224 1.12 2.965 1.679 4.42.28.727.335.895.615.895h.28v.336h-2.797v-.336h.391c.056 0 .168 0 .168-.112 0-.056-.391-1.063-.56-1.622l-1.902.055zm1.006-2.35l-.838 1.902h1.51l-.672-1.902zM77.722 22.373h2.853v.335h-.336c-.112 0-.168 0-.168.168v4.252c0 .168 0 .895.224.895h.56v.336h-2.91v-.336c.448 0 .504 0 .504-.112v-4.643c0-.56-.168-.56-.28-.56h-.447v-.335zM86.83 26.095v-2.74c0-.393-.056-.616-.28-.616h-.503v-.336h1.79v.336h-.335c-.056 0-.168 0-.168.111v5.595c0 .056-.056.112-.112.112-.168-.056-.28-.224-.392-.28l-4.307-4.475v3.636c0 .391.056.615.28.615h.503v.336h-1.79v-.336h.335c.112 0 .224 0 .224-.112v-4.028c0-1.174-.727-1.174-.95-1.174v-.336h2.125l3.58 3.692zM92.415 26.104c.728-1.678 1.007-2.294 1.735-3.748h1.957v.392h-.335c-.112 0-.168 0-.168.167v4.252c0 .168 0 .895.224.895h.503v.336h-2.853v-.336c.503 0 .56 0 .56-.112v-4.308h-.057l-2.013 4.42c-.056.056-.056.224-.168.224a.12.12 0 0 1-.112-.112l-2.014-4.307v3.58c0 .391.056.615.28.615h.504v.336h-1.79v-.336h.334c.113 0 .225 0 .225-.112v-4.363c-.056-.784-.392-.84-.896-.84v-.335h2.238l1.846 3.692zM97.487 23.315c0-.56-.168-.56-.28-.56h-.448v-.335h4.98l-.113.615c0 .112 0 .392-.168.392-.167.056-.223 0-.223-.112 0-.223-.112-.28-.28-.335-.504-.168-.951-.168-1.734-.168-.112 0-.168 0-.168.168v2.013h.56c1.062 0 1.118-.167 1.118-.391v-.336h.336v1.678h-.336v-.167c0-.28 0-.448-.839-.448h-.84v1.175c0 1.287.057 1.454.28 1.454.896 0 2.126-.056 2.406-.615.056-.112.056-.112.168-.112.112 0 .168.056.168.168 0 .112-.168.727-.28 1.007h-4.81v-.336c.446 0 .503 0 .503-.112v-4.643zM107.865 26.095v-2.74c0-.393-.056-.616-.28-.616h-.503v-.336h1.79v.336h-.335c-.056 0-.168 0-.168.111v5.595c0 .056-.056.112-.112.112-.168-.056-.28-.224-.392-.28l-4.307-4.475v3.636c0 .391.056.615.28.615h.447v.336h-1.79v-.336h.336c.112 0 .224 0 .224-.112v-4.028c.055-1.174-.672-1.174-.895-1.174v-.336h2.125l3.58 3.692zM113.985 28.417h-3.469v-.336c.783 0 .895 0 .895-.112v-5.146h-.168c-1.398 0-1.566.392-1.622.503-.112.168-.168.224-.28.224-.111 0-.167-.056-.167-.112 0-.112.111-.503.335-1.063h5.315c.168.56.335.951.335 1.063 0 .056-.055.112-.167.112-.112 0-.168-.112-.224-.224-.056-.111-.224-.503-1.622-.503h-.168v4.308c0 .167 0 .895.224.895h.783v.39zM62.666 42.457c-.615-.728-1.12-1.566-2.462-3.636 1.23-.169 2.126-.951 2.126-2.294 0-1.231-1.007-2.573-3.133-2.573h-4.699v.503h.671c.504 0 .56.056.56 2.014v6.266c0 .167-.056.223-.224.223h-.671v.504h4.195v-.504h-.67c-.504 0-.56-.056-.56-2.014v-1.79h.615c1.063 2.07 2.182 3.86 2.63 4.196.167.112.447.112.727.112h2.014v-.504c-.616 0-.672-.112-1.12-.503m-4.642-3.805h-.224v-3.915c0-.168.056-.168.168-.168h.391c.448 0 1.958.448 1.958 2.237 0 1.343-1.119 1.846-2.293 1.846M112.244 33.933h-4.587v.503h.671c.504 0 .56.056.56 2.014v6.321c0 .169-.056.224-.224.224h-.671v.504h4.196v-.504h-.672c-.503 0-.559-.055-.559-2.014V39.08c.28.055.615.111.95.111h.336c1.735 0 3.301-1.119 3.301-2.629 0-1.063-.56-2.629-3.3-2.629m-.56 4.699c-.28 0-.56-.056-.783-.168v-3.748c0-.168.056-.168.168-.168h.112c1.79 0 2.293 1.399 2.293 2.182.056 1.119-.727 1.846-1.79 1.902M77.402 33.654c-.056 0-.056 0 0 0h-.335c-3.078 0-5.147 2.293-5.147 5.314.056 2.91 1.957 4.811 4.867 4.811h.335c3.077 0 5.147-2.293 5.147-5.314-.056-2.91-1.958-4.811-4.867-4.811m0 9.566c-1.399-.056-3.413-1.287-3.413-5.035 0-3.468 2.014-3.916 2.798-3.916 1.342 0 3.412 1.23 3.412 5.035 0 3.468-2.07 3.86-2.797 3.916M41.39 39.567h.784c.503 0 .56.056.56 2.014v1.174c-.392.28-.896.392-1.4.392-2.46-.056-3.58-2.35-3.58-4.42 0-3.803 2.966-4.363 3.916-4.419 1.511.056 2.238.671 2.238.951 0 .224.056.336.224.336h.336c.167 0 .223-.168.391-1.399-.839-.392-1.902-.56-2.797-.56h-.336c-3.132 0-5.985 1.903-5.985 5.26 0 3.02 1.901 4.81 4.866 4.81h.336c.783 0 1.343-.112 2.014-.28 2.07-.447 2.07-.67 2.07-.838-.056-.112-.28 0-.28-.728v-2.125c0-.112.056-.168.224-.168h.671v-.504h-4.251v.504zM98.005 34.454h.615c.391 0 .503.056.56.503.111.727.111 1.79.111 2.63v2.349c0 2.741-1.846 3.133-2.685 3.133-2.35-.056-2.461-2.182-2.461-3.357v-5.035c.055-.111.055-.223.28-.223h.67v-.504H90.9v.504h.671c.503 0 .56.056.56 2.014v3.972c0 1.622.783 3.3 3.86 3.3h.335c1.902 0 3.916-1.063 3.916-3.804v-5.314c0-.168.056-.168.448-.168h.448v-.504h-3.133v.504z"/>
        <path fill="#FFF" d="M15.452 22.178l-3.524 12.028c1.119.335 2.293.503 3.468.503 5.706 0 10.517-3.804 11.972-9.007l-11.916-3.524z"/>
        <path fill="#FFF" d="M3.472 18.744a12.104 12.104 0 0 0-.504 3.469c0 5.65 3.804 10.461 9.007 11.971l3.524-12.028-12.027-3.412z"/>
        <path fill="#FFF" d="M18.888 10.256l-3.412 11.916 11.972 3.468a11.45 11.45 0 0 0 .503-3.412 12.568 12.568 0 0 0-9.063-11.972M15.452 22.178l3.413-11.916a11.828 11.828 0 0 0-3.469-.503c-5.65 0-10.461 3.804-11.971 8.95l12.027 3.47z"/>
        <path fill="#223547" d="M18.652 23.12l-.56-10.125-5.93 8.279-3.86-6.377.895 14.433 3.693 1.454 3.86.727 8.559-11.692z"/>
        <path fill="#FFF" d="M18.369 23.618l-.56-9.622-4.755 16.447 3.58.727 7.497-10.349z"/>
        <path fill="#223547" d="M18.369 23.618l-4.084 7.049 2.181.448z"/>
        <path fill="#FFF" d="M12.143 21.823l-.336 8.168-2.07-.783z"/>
        <path fill="#223547" d="M15.433 7.774C7.433 7.774 1 14.264 1 22.208c0 8 6.433 14.489 14.433 14.489s14.433-6.49 14.433-14.49c0-7.943-6.433-14.433-14.433-14.433m0 26.909c-6.88 0-12.475-5.595-12.475-12.475 0-6.881 5.594-12.476 12.475-12.476 6.881 0 12.475 5.595 12.475 12.476 0 6.88-5.594 12.475-12.475 12.475"/>
    </g>
</svg>
