<svg xmlns="http://www.w3.org/2000/svg" width="176" height="32" viewBox="0 0 176 32">
    <g fill="#223547" fill-rule="evenodd">
        <path d="M146.62 18.321c-.088.283-.176.622-.532.576-.394-.051-.47-.415-.448-.755.038-.589.304-1.073.79-1.655.147.726.374 1.25.19 1.834M100.28 3.144c-1.657 4.096-1.734 8.291-.908 12.562.262 1.358.24 1.362-.815 2.562-3.564-4.107-3.49-11.792.1-15.758.05-.054.098-.11.15-.16.58-.56 1.317-1.46 1.968-1.102.517.284-.24 1.265-.495 1.896m-.296 23.424c-.2.783-.43 1.554-.868 2.244-.408.645-.902 1.236-1.752 1.04-.88-.204-1.016-1.01-1.06-1.745-.069-1.104.11-2.198.384-3.27.571-2.226 1.645-4.193 3.18-6.169.45 2.798.767 5.344.116 7.9m-13.37-9.866c-.493-.21-.947-.556-.73-1.164.221-.62.796-.549 1.302-.41.917.252 1.564.858 2.187 1.758-1.057.12-1.93.167-2.759-.184m25.694-4.255c-.536-.096-1.14-.151-1.18-.874-.016-.273.23-.432.577-.399.54.133.93.528 1.084 1.062.083.287-.276.248-.48.211m8.002-9.287c.035-.178.075-.36.146-.526.193-.447.239-1.166.885-1.059.563.094.443.762.46 1.215.09 2.206-.43 4.26-1.663 6.141-.096-1.936-.207-3.862.172-5.771m38.137 9.36c-.558-.076-1.127-.2-1.25-.866-.068-.37.213-.54.555-.475.597.113.918.559 1.167 1.048-.005.375-.274.319-.472.292m17.034 3.433c-.255-.175-.497-.075-.69.127-.304.32-.578.667-.893.976-.247.243-.457.693-.88.502-.36-.161-.175-.591-.178-.898-.02-1.728.002-3.458-.026-5.186-.012-.768-.225-1.507-1.05-1.76-.815-.252-1.53.035-2.047.717-.331.437-.642.896-.914 1.373-.789 1.384-1.553 2.783-2.327 4.176-.209-.304-.208-.578-.209-.851-.006-1.288.022-2.576-.03-3.862-.051-1.28-.694-1.765-1.954-1.596-.573.076-1.018.39-1.466.714-.654.474-1.314.942-1.966 1.419-.406.296-.646.28-.892-.242-.385-.814-.989-1.463-1.886-1.754-1.304-.424-2.391.442-2.278 1.804.093 1.127 1.03 2.093 2.351 2.008 1.375-.087 1.288.634 1.198 1.525-.149 1.483-1.08 2.595-2.29 2.728-1.393.153-2.541-.683-2.974-2.23-.472-1.684-.194-3.268.734-4.749.226-.361.867-.684.638-1.053-.288-.463-.942-.156-1.422-.083-.466.071-.922.246-1.363.422-1.553.623-2.913 1.567-4.157 2.662-.576.506-.786.386-1.059-.248-.377-.875-.846-1.71-1.26-2.568-.11-.228-.144-.566-.429-.58-.37-.019-.405.373-.513.628-.977 2.313-2.313 4.42-3.703 6.494-.208.31-.387.672-.893.89v-1.183c-.006-1.655-.001-3.31-.023-4.966-.009-.694-.193-1.367-.932-1.594-.76-.232-1.464-.01-1.976.63-.275.341-.521.711-.744 1.09-.884 1.498-1.753 3.004-2.628 4.506-.186-.615-.179-1.187-.188-1.76-.017-1.028-.014-2.058-.08-3.083-.038-.602-.252-1.198-.908-1.383-.714-.201-1.408-.06-1.92.516-.313.354-.557.773-.81 1.175-1.224 1.936-2.441 3.876-3.686 5.856-.374-.357-.234-.665-.237-.931-.02-1.655-.003-3.31-.021-4.966-.008-.689-.168-1.373-.888-1.633-.764-.275-1.461-.014-1.973.613-.346.425-.658.884-.94 1.354-.839 1.402-1.655 2.817-2.48 4.226-.193-1.154-.151-2.274-.205-3.389-.048-.992.186-1.793.825-2.615 1.699-2.183 2.569-4.684 2.355-7.495-.065-.858-.381-1.619-1.225-1.936-.867-.326-1.656-.029-2.326.595-.719.67-1.162 1.515-1.491 2.416-.68 1.86-.76 3.802-.735 5.76.028 2.316.006 2.316-2.299 2.92-.035.009-.072.018-.105.033-.492.223-.79.12-1.01-.428a3.511 3.511 0 0 0-1.572-1.79c-.92-.513-1.964-.322-2.47.428-.49.73-.314 1.854.419 2.503.6.533 1.325.758 2.122.797.304.014.643-.069.765.416.342 1.352-.582 3.237-1.84 3.654-1.345.447-2.746-.293-3.293-1.836-.657-1.855-.369-3.61.737-5.241.207-.305.648-.506.512-1.059-1.602-.035-2.766.907-3.924 1.77-1.18.88-2.268 1.88-3.442 2.865-.852-6.365-.845-8.13.043-13.046.222-1.229.061-1.377-1.174-1.082-3.383.807-6.812 4.869-7.321 8.63-.346 2.55.06 4.965 1.279 7.303-.891-.004-1.707.004-2.482.228-.726.209-.982.035-.946-.744a7.252 7.252 0 0 0-.557-3.123c-.38-.917-.971-.465-1.541-.227-.611.255-.777.572-.329 1.153.397.515.684 1.104.654 1.923-1.301-1.138-2.75-1.556-4.348-1.39-.865.09-1.704.336-1.89 1.37-.185 1.033.38 1.684 1.241 2.103 1.148.558 2.4.819 3.643.664 1.229-.153 2.05-.117 1.77 1.453-.045.256.06.528.377.581.315.053.49-.17.56-.422.149-.527.261-1.065.37-1.603.05-.241.003-.468.318-.624 1.672-.828 3.631-.39 4.995.855 1.013.926.959 1.587.309 2.726-1.527 2.676-2.546 5.546-2.094 8.726.121.852.335 1.696 1.249 2.053.98.383 1.797-.04 2.52-.67 1.051-.917 1.683-2.122 2.207-3.385 1.413-3.41 1.696-6.966 1.364-10.604-.036-.396-.157-.936.043-1.176.913-1.099 1.96-2.076 3.285-3.081-.18 1.073-.332 1.865-.252 2.681.253 2.576 1.838 4.392 3.998 4.555 2.54.192 4.53-1.281 5.165-3.833.17-.684.163-1.386.126-2.085-.019-.362.007-.667.459-.722.806-.098 1.517-.505 2.367-.785v6.227c0 .517.146.966.683 1.137.577.184 1.099.064 1.459-.463.186-.272.344-.564.5-.854.989-1.842 1.966-3.692 2.969-5.527.161-.296.25-.695.693-.79.227.347.117.719.12 1.066.015 1.619-.007 3.237.017 4.856.011.714.13 1.446.933 1.709.86.281 1.49-.136 1.97-.832.146-.212.297-.42.436-.637 1.169-1.823 2.33-3.652 3.51-5.469.142-.22.227-.639.605-.503.284.101.172.451.174.695.012 1.876.01 3.752.02 5.628.002.504.121.985.67 1.14.518.147 1.046.08 1.414-.366.253-.307.458-.66.645-1.013.963-1.814 1.907-3.64 2.876-5.45.171-.32.286-.736.831-.86 0 2.061-.007 4.04.005 6.019.003.689.147 1.368.877 1.633.713.26 1.394.06 1.915-.496.4-.428.779-.885 1.105-1.372 1.03-1.536 2.031-3.091 3.054-4.655.775.924 1.252 1.767.186 2.778-.345.328-.519.888-.656 1.374-.236.84-.075 1.633.667 2.17.712.514 1.48.357 2.184-.041.627-.354 1.037-.916 1.289-1.597.376-1.014.259-2.016-.015-3.028-.077-.283-.37-.576-.008-.902 1.081-.977 2.149-1.969 3.776-2.598-1.073 1.832-1.174 3.52-.665 5.246.64 2.172 2.298 3.319 4.546 3.21 2.544-.122 4.496-2.229 4.45-5.079-.021-1.28.236-2.159 1.442-2.68.418-.18.744-.75 1.25-.49.47.24.232.8.238 1.216.025 1.913 0 3.826.032 5.738.008.505.081 1.07.705 1.242.622.172 1.179.008 1.579-.506.223-.286.387-.621.555-.946.793-1.532 1.566-3.073 2.373-4.598.3-.568.526-1.198 1.06-1.626.32.305.222.656.224.975.012 1.582.004 3.163.018 4.745.008.828.276 1.564 1.105 1.866.886.323 1.74.203 2.432-.526.794-.836 1.323-1.847 1.893-2.833.149-.258.178-.494-.085-.675M53.183 18.32c-.036.282-.16.625-.517.581-.382-.047-.533-.413-.488-.743.079-.568.276-1.11.743-1.534.384.54.335 1.123.262 1.695M7.33 1.94c-.665 1.67-1.29 3.35-1.609 5.132-.479 2.678-.36 5.339.143 7.996.22 1.155.523 2.33-.784 3.17-1.558-1.763-2.29-3.894-2.527-6.25-.304-3.025.232-5.85 1.867-8.433.575-.908 1.27-1.718 2.25-2.214.233-.118.533-.4.789-.111.193.217-.037.477-.129.71M6.174 27.762c-.16.442-.39.87-.65 1.263-.378.573-.887 1.03-1.636.817-.743-.212-.965-.863-1.003-1.55-.123-2.176.433-4.211 1.355-6.158.55-1.16 1.225-2.243 2.185-3.444.529 3.173.813 6.141-.25 9.072m12.75-15.296c-.455-.123-1.132-.07-1.241-.845-.044-.311.193-.485.472-.456.651.068 1.008.543 1.233 1.088.08.192-.184.254-.463.213m8-9.478a4.36 4.36 0 0 1 .315-.928c.121-.255.265-.556.629-.517.393.042.394.376.425.662.266 2.437-.283 4.688-1.622 6.756-.136-2.016-.176-4.008.253-5.973m36.85 8.747c-.106-.268.044-.58.332-.572.798.022 1.186.558 1.448 1.313-.788.079-1.461.06-1.78-.74m18.304 4.245c-.287-.228-.551-.104-.772.135-.35.378-.685.769-1.045 1.137-.171.176-.346.437-.641.33-.32-.114-.21-.432-.215-.669-.017-.662.008-1.324-.01-1.986-.037-1.285.099-2.572-.083-3.855-.089-.626-.327-1.17-.957-1.356-.665-.197-1.327-.09-1.832.444-.276.291-.538.61-.737.956-.802 1.4-1.568 2.822-2.374 4.22-.122.211-.096.627-.57.56 0-1.513.039-3.02-.01-4.526-.05-1.5-.998-2.119-2.408-1.595-.437.163-.821.477-1.213.745a52.02 52.02 0 0 0-1.793 1.28c-.422.317-.665.262-.902-.24-.352-.745-.896-1.337-1.677-1.677-.706-.308-1.38-.253-1.968.234-.615.511-.636 1.207-.431 1.92.28.976 1.191 1.659 2.488 1.6.996-.047 1.1.4 1.018 1.166-.06.552-.144 1.094-.398 1.593-.425.836-1.048 1.407-2.033 1.479-1.052.076-1.85-.342-2.419-1.225a3.92 3.92 0 0 1-.622-1.858c-.12-1.594.158-3.074 1.242-4.326.159-.184.434-.37.282-.659-.15-.285-.455-.14-.696-.139-.635.004-1.221.213-1.812.42-1.696.598-3.117 1.64-4.464 2.781-.523.444-.72.39-.981-.225-.386-.91-.865-1.78-1.305-2.666-.108-.219-.13-.555-.462-.528-.3.025-.344.333-.442.568-.79 1.907-1.865 3.66-2.965 5.396-.44.695-.853 1.416-1.634 2.164v-1.278c-.004-1.655.02-3.311-.024-4.965-.018-.667-.178-1.378-.924-1.613-.755-.239-1.467-.046-1.985.594-.298.37-.568.768-.81 1.178-.868 1.473-1.72 2.956-2.578 4.435-.234-1.527-.212-3.018-.242-4.507-.016-.754-.153-1.528-1.046-1.731-.866-.196-1.602.101-2.097.865-.42.647-.802 1.317-1.215 1.968-.99 1.56-1.987 3.117-2.982 4.674-.234-1.863-.222-3.647-.239-5.43-.008-.818-.037-1.725-.959-2.04-1.024-.351-1.766.232-2.308 1.063-.48.739-.939 1.492-1.386 2.251-.561.954-1.102 1.92-1.651 2.882-.085-2.368-.945-4.832 1.15-6.744.18-.165.27-.433.395-.658 1.033-1.873 1.596-3.865 1.442-6.018-.064-.883-.371-1.706-1.274-2.027-.92-.327-1.735.022-2.402.7-.683.694-1.089 1.55-1.426 2.454-.712 1.909-.672 3.893-.661 5.88.01 1.914-.025 1.953-1.82 2.534-.209.068-.438.083-.636.173-.516.234-.796.072-1.006-.445-.31-.768-.83-1.387-1.57-1.787-.895-.482-1.87-.328-2.401.36-.517.669-.385 1.844.3 2.514.61.596 1.366.823 2.203.86.307.013.645-.056.765.424.336 1.342-.61 3.238-1.866 3.647-1.355.44-2.756-.301-3.3-1.834-.66-1.86-.357-3.61.754-5.235.208-.304.624-.525.464-1.158-3.063.565-4.985 2.82-7.258 4.714-.82-3.137-.875-8.743-.158-12.322.12-.593.505-1.35.011-1.773-.53-.455-1.242.05-1.86.232-.036.01-.071.02-.105.035C.209 3.128-2.05 11.542 2.11 16.991c.684.896 1.942 1.676 2.04 2.604.1.944-.966 1.98-1.416 3.02-1 2.314-1.723 4.692-1.248 7.269.16.86.398 1.674 1.356 1.96.952.285 1.72-.128 2.405-.74 1.244-1.115 1.9-2.59 2.478-4.108 1.265-3.313 1.282-6.757 1.078-10.225-.022-.357-.143-.727.174-1.04.96-.95 1.891-1.931 3.214-2.85-.328 1.052-.353 1.917-.286 2.782.232 3.005 2.428 4.84 5.277 4.423 2.042-.299 3.906-2.102 3.904-4.436 0-1.78.68-2.377 2.203-2.723.62-.14.749-.155.739.492-.028 1.802-.002 3.604-.013 5.407-.004.554.084 1.054.68 1.24.636.2 1.162-.007 1.519-.577.175-.28.32-.578.477-.869.955-1.777 1.904-3.558 2.868-5.33.18-.33.302-.731.878-.966v5.792c0 .794.025 1.625.918 1.936.966.336 1.601-.231 2.096-1 1.213-1.882 2.424-3.766 3.648-5.642.203-.31.313-.732.755-.867.287.422.169.833.174 1.218.023 1.729.007 3.457.044 5.185.01.47.1.988.685 1.136.579.146 1.11.028 1.492-.454a5.83 5.83 0 0 0 .574-.932c.8-1.528 1.575-3.068 2.385-4.591.317-.597.57-1.248 1.145-1.765.253.4.17.774.173 1.125.01 1.582.005 3.163.007 4.745 0 .759.048 1.537.895 1.835.818.288 1.504-.048 2.06-.684.996-1.14 1.768-2.434 2.605-3.686.474-.71.805-1.523 1.4-2.12.875.93 1.081 1.814.123 2.792-.403.412-.606 1-.66 1.606-.072.777.056 1.484.776 1.927.744.458 1.492.298 2.183-.126.648-.398 1.041-1.009 1.29-1.73.341-.994.186-1.96-.11-2.92-.1-.322-.24-.594.087-.892 1.046-.953 2.095-1.892 3.631-2.517-.546 1.096-.844 2.054-.878 3.09-.135 4.086 3.314 6.625 6.666 4.852 2.154-1.14 2.753-3.138 2.667-5.401-.025-.661.065-1.115.725-1.39.33-.138.599-.42.899-.632.298-.21.61-.532.981-.382.484.195.3.698.303 1.08.015 1.948 0 3.898.017 5.848.004.557.055 1.145.733 1.325.627.167 1.172-.032 1.563-.548.22-.29.391-.62.56-.944.893-1.727 1.77-3.461 2.675-5.181.19-.36.33-.793.906-1.064v1.31c.006 1.47-.016 2.943.03 4.413.028.844.312 1.644 1.195 1.939.94.313 1.807.115 2.502-.666.715-.805 1.196-1.758 1.75-2.666.136-.225.228-.494-.027-.696"/>
    </g>
</svg>
