<svg xmlns="http://www.w3.org/2000/svg" width="140" height="76" viewBox="0 0 140 76">
    <g fill="none" fill-rule="evenodd">
        <path fill="#223547" d="M107.263.65H32.548v74.983h74.715V50.885c.298-.427.444-.98.444-1.65 0-.765-.146-1.241-.444-1.639V.65z"/>
        <path fill="#FEFEFE" d="M39.714 32.593l-1.432-3.425-1.427 3.425h2.859zm31.556-1.359c-.282.16-.623.175-1.033.175h-2.544V29.5h2.577c.369 0 .749.011.996.15.271.128.437.395.437.76 0 .377-.162.676-.433.825zm18.143 1.359l-1.452-3.425-1.434 3.425h2.886zM55.6 36.3h-2.144l-.012-6.725-3.033 6.725h-1.836l-3.048-6.74v6.74H41.27l-.801-1.917H36.11L35.3 36.3h-2.275l3.743-8.598h3.114l3.558 8.146v-8.146h3.421l2.737 5.837 2.518-5.837H55.6v8.598zm8.55 0h-6.992v-8.598h6.991v1.795h-4.894v1.544h4.776v1.767l-4.776-.004v1.717h4.894v1.779zm9.86-6.277a2.43 2.43 0 0 1-1.47 2.29c.456.173.846.47 1.028.727.295.42.353.811.353 1.569v1.69H71.81l-.008-1.081c0-.511.054-1.26-.336-1.669-.307-.307-.766-.37-1.523-.37h-2.25v3.12h-2.088v-8.597h4.815c1.062 0 1.857.033 2.533.416.664.38 1.058.943 1.058 1.905zm1.216 6.277h2.135v-8.6h-2.135v8.6zm26.909 0H99.17l-3.967-6.448.004 6.448h-4.263l-.815-1.917h-4.355l-.782 1.917h-2.453c-1.02 0-2.309-.222-3.035-.948-.74-.735-1.118-1.717-1.118-3.286 0-1.277.23-2.44 1.126-3.357.68-.689 1.739-1.007 3.18-1.007h2.024v1.842h-1.977c-.766 0-1.204.114-1.62.511-.35.365-.598 1.048-.598 1.95 0 .923.182 1.581.58 2.02.316.335.903.441 1.455.441h.94l2.95-6.764h3.137l3.541 8.133v-8.133h3.193l3.679 5.988v-5.988h2.139v8.598zM33 37.994h3.577l.807-1.915h1.805l.803 1.915h7.037v-1.46l.63 1.466h3.65l.627-1.485v1.479h17.487l-.008-3.136h.34c.239.007.307.033.307.414v2.722h9.042v-.732c.728.386 1.867.732 3.355.732h3.809l.815-1.915h1.807l.797 1.915h7.332v-1.815l1.11 1.815H104V26h-5.815v1.418L97.373 26h-5.966v1.418L90.66 26H82.6c-1.349 0-2.54.183-3.496.699V26h-5.556v.699c-.616-.532-1.446-.699-2.368-.699H50.861l-1.37 3.099L48.1 26h-6.4v1.418L40.99 26h-5.457L33 31.698v6.296zM107 45.539h-3.843c-.382 0-.638.016-.847.154-.221.14-.309.35-.309.621 0 .322.186.544.463.64.217.075.457.095.812.1l1.137.028c1.15.03 1.92.222 2.39.688.078.067.136.147.197.218v-2.45zm0 5.666c-.517.737-1.513 1.101-2.86 1.101h-4.067v-1.845h4.05c.4 0 .68-.05.851-.213a.74.74 0 0 0 .253-.558.71.71 0 0 0-.257-.568c-.159-.137-.378-.192-.74-.196-1.976-.063-4.442.06-4.442-2.66 0-1.245.811-2.556 3.014-2.556H107V42h-3.9c-1.178 0-2.03.273-2.636.702V42H94.7c-.916 0-1.996.226-2.514.702l.004-.702H81.9v.702c-.82-.572-2.197-.702-2.842-.702h-6.78v.702c-.651-.61-2.087-.702-2.965-.702h-7.6l-1.738 1.84L58.349 42H47v11.996h11.137l1.79-1.865 1.69 1.865 6.855.004v-2.822h.68c.906.01 1.987-.02 2.932-.42v3.238h5.66v-3.13h.271c.35 0 .384.021.384.355v2.775h17.195c1.09 0 2.23-.273 2.86-.768v.768h5.458c1.135 0 2.241-.155 3.088-.552v-2.24zm-8.402-3.435c.416.417.63.943.63 1.82 0 1.853-1.185 2.716-3.304 2.716h-4.102v-1.845h4.087c.403 0 .68-.05.86-.213a.744.744 0 0 0 .248-.558c0-.25-.11-.454-.26-.568-.16-.137-.38-.192-.748-.196-1.967-.063-4.433.06-4.433-2.66 0-1.245.803-2.556 3.008-2.556h4.221v1.829h-3.858c-.388 0-.636.016-.849.154-.227.14-.313.35-.313.621 0 .322.196.544.461.64.22.075.455.095.814.1l1.137.028c1.146.03 1.924.222 2.401.688zm-18.993-.525c-.278.158-.628.175-1.035.175h-2.56v-1.928h2.593c.374 0 .753.006 1.002.15.273.143.436.406.436.776 0 .364-.163.664-.436.827zm1.272 1.064c.468.167.852.47 1.031.725.296.422.346.81.35 1.57v1.702h-2.11V51.23c0-.517.047-1.28-.343-1.678-.307-.315-.774-.386-1.54-.386H76.01v3.141H73.9V43.71h4.854c1.072 0 1.846.043 2.534.41.664.384 1.079.93 1.079 1.907a2.406 2.406 0 0 1-1.49 2.282zm2.66-4.599h7.03v1.782h-4.93v1.557h4.806v1.755h-4.807v1.708l4.93.009v1.785h-7.029V43.71zM69.34 47.674h-2.727v-2.182h2.748c.762 0 1.287.297 1.287 1.052 0 .743-.5 1.13-1.308 1.13zm-4.823 3.852l-3.228-3.502 3.228-3.387v6.89zm-8.344-1.014H51v-1.708h4.622V47.05h-4.622v-1.557h5.275l2.303 2.5-2.404 2.52zm16.733-3.968c0 2.382-1.822 2.88-3.668 2.88h-2.625v2.882h-4.085l-2.593-2.842-2.693 2.842h-8.335V43.71h8.464l2.59 2.814 2.676-2.814h6.724c1.671 0 3.545.452 3.545 2.834z"/>
        <path fill="#223547" d="M29.472 72.5c0 1.65-1.261 2.99-2.971 2.99-1.71 0-2.97-1.34-2.97-2.99 0-1.65 1.256-2.99 2.97-2.99 1.718 0 2.97 1.34 2.97 2.99zm.528 0c0-1.943-1.566-3.5-3.499-3.5A3.494 3.494 0 0 0 23 72.5c0 1.943 1.566 3.5 3.501 3.5A3.493 3.493 0 0 0 30 72.5zm-2.682-.717c0-.414-.28-.449-.487-.449h-.977v.917h.905c.299 0 .559-.072.559-.468zm.704 2.322h-.645c-.082-.258-.094-.744-.094-.861 0-.241-.04-.482-.481-.482h-.948l.002 1.343h-.57v-3.282h1.516c.522 0 1.097.188 1.097.917 0 .41-.174.612-.35.74.148.084.273.226.291.595l.025.568c.01.165.022.196.157.272v.19z"/>
    </g>
</svg>
