<svg xmlns="http://www.w3.org/2000/svg" width="144" height="32" viewBox="0 0 144 32">
    <g fill="#223547" fill-rule="evenodd">
        <path d="M38.808 26.022v2.345h-2.692v-2.345h-.991v5.641h.99v-2.376h2.693v2.376h.99v-5.64zM47.31 28.859v-.016c0-1.096-.798-2.007-1.92-2.007-1.12 0-1.901.894-1.901 1.99v.017c0 1.096.798 2.006 1.919 2.006 1.12 0 1.902-.894 1.902-1.99m-4.86 0v-.016c0-1.588 1.225-2.918 2.958-2.918 1.732 0 2.94 1.315 2.94 2.902v.016c0 1.587-1.224 2.917-2.957 2.917-1.733 0-2.942-1.313-2.942-2.901M52.079 26.94h-1.79v-.918h4.579v.918h-1.79v4.723h-1zM57.365 26.022h4.183v.887h-3.191v1.467h2.83v.886h-2.83v1.515h3.232v.886h-4.224zM64.216 26.022h.99v4.739h2.967v.902h-3.957zM74.272 28.859v-.016c0-1.58 1.21-2.918 2.91-2.918.983 0 1.59.275 2.17.766l-.63.75c-.437-.371-.864-.605-1.581-.605-1.04 0-1.828.91-1.828 1.99v.017c0 1.16.765 2.015 1.917 2.015.533 0 1.016-.17 1.362-.428v-1.055H77.15v-.862h2.403v2.37a3.606 3.606 0 0 1-2.354.877c-1.765 0-2.927-1.257-2.927-2.901M84.732 28.819c.71 0 1.161-.37 1.161-.943v-.017c0-.604-.435-.934-1.168-.934h-1.443v1.894h1.45zm-2.44-2.797h2.512c.712 0 1.266.21 1.63.564.299.306.467.726.467 1.216v.017c0 .927-.556 1.483-1.346 1.708l1.524 2.136H85.91l-1.386-1.965h-1.242v1.965h-.99v-5.641zM94.18 28.859v-.016c0-1.096-.8-2.007-1.919-2.007-1.121 0-1.904.894-1.904 1.99v.017c0 1.096.799 2.006 1.919 2.006 1.119 0 1.903-.894 1.903-1.99m-4.861 0v-.016c0-1.588 1.226-2.918 2.958-2.918 1.732 0 2.942 1.315 2.942 2.902v.016c0 1.587-1.225 2.917-2.957 2.917-1.734 0-2.943-1.313-2.943-2.901M97.78 29.27v-3.248h.993v3.208c0 1.047.538 1.611 1.425 1.611.878 0 1.42-.532 1.42-1.57v-3.249h.99v3.2c0 1.684-.952 2.53-2.427 2.53-1.466 0-2.401-.846-2.401-2.482M107.564 28.956c.749 0 1.216-.42 1.216-1.007v-.017c0-.66-.475-1.007-1.216-1.007h-1.154v2.031h1.154zm-2.144-2.934h2.225c1.313 0 2.143.75 2.143 1.886v.016c0 1.265-1.016 1.927-2.255 1.927h-1.123v1.812h-.99v-5.641zM15.166.657h2.696l3.386 10.521L24.734.618h2.108l3.486 10.56L33.714.658h2.615l-4.947 14.29h-2.149L25.747 4.752l-3.486 10.196h-2.15zM42.656 9.252L37.02.657h2.94l3.971 6.285L47.946.657h2.858l-5.636 8.534v5.656h-2.512zM52.185.657h2.31l7.6 9.811V.658h2.454v14.189h-2.087L54.637 4.752v10.095h-2.452zM73.085 12.577c2.98 0 4.926-2.007 4.926-4.784v-.04c0-2.778-1.945-4.825-4.926-4.825h-2.797v9.649h2.797zM67.795.657h5.29c4.46 0 7.542 3.062 7.542 7.055v.04c0 3.993-3.082 7.095-7.542 7.095h-5.29V.657zM83.245.657h2.491v5.9h6.77v-5.9h2.495v14.19h-2.494v-5.98h-6.771v5.98h-2.491zM106.84 9.211l-2.453-5.675-2.433 5.675h4.886zM103.271.556h2.313l6.241 14.29h-2.634l-1.44-3.425h-6.71l-1.46 3.426h-2.553L103.27.557zM113.45.657h2.654l4.317 6.71 4.319-6.71h2.656v14.19h-2.494V4.67l-4.48 6.689h-.08l-4.44-6.648v10.135h-2.451zM1 23.154s19.108-5.963 70.174-5.963c51.44 0 70.453 5.926 70.453 5.926s-23.262-4.066-70.453-4.066C23.984 19.05 1 23.154 1 23.154M130.007 1.341h.1c.117 0 .212-.039.212-.134 0-.083-.061-.14-.195-.14a.477.477 0 0 0-.117.012v.262zm-.006.52h-.212V.944c.084-.017.201-.028.352-.028.173 0 .25.028.318.067.05.04.089.112.089.201 0 .1-.078.179-.19.212v.011c.09.034.14.101.168.224.028.139.044.195.067.228h-.229c-.028-.033-.045-.117-.073-.223-.016-.1-.072-.145-.19-.145h-.1v.368zm-.564-.48c0 .407.302.73.715.73.402 0 .697-.323.697-.725 0-.407-.295-.736-.703-.736-.407 0-.709.329-.709.73zm1.646 0a.92.92 0 0 1-.937.926.928.928 0 0 1-.943-.926c0-.508.419-.916.943-.916.53 0 .937.408.937.916z"/>
    </g>
</svg>
