<svg xmlns="http://www.w3.org/2000/svg" width="120" height="68" viewBox="0 0 120 68">
    <g fill="none" fill-rule="evenodd">
        <path fill="#F9F9F9" d="M-412-246h1440v575H-412z"/>
        <g fill="#223547" style="mix-blend-mode:multiply">
            <path d="M60.5 0C41.945 0 26.917 15.008 26.917 33.5S41.945 67 60.5 67s33.583-14.991 33.583-33.5S79.055 0 60.5 0zm28.294 43.081c-.084-.034-.1-.067-.1-.117s1.124-3.35 1.107-7.136c-.016-4.087-1.679-6.6-3.811-6.6-1.31 0-2.234.939-2.234 2.329 0 2.512 3.073 2.697 3.073 8.174 0 2.228-.47 4.355-1.209 6.683C82.178 58.005 71.196 63.4 60.5 63.4c-4.937 0-8.43-1.005-9.47-1.474-.05-.017-.084-.1-.05-.184.016-.068.1-.118.133-.084.42.167 3.426 1.105 7.154 1.105 4.097 0 6.515-1.675 6.515-3.718a2.298 2.298 0 0 0-2.317-2.312c-2.52 0-2.704 3.15-8.094 3.15-2.317 0-4.366-.47-6.784-1.207C36.035 55.125 30.544 44.27 30.544 33.5c0-5.243 1.477-9.43 1.494-9.464.017-.033.084-.05.168-.033.084.033.1.1.1.117-.134.435-1.107 3.434-1.107 7.136 0 4.087 1.679 6.498 3.811 6.498 1.21 0 2.234-.92 2.234-2.227 0-2.513-3.073-2.78-3.073-8.174 0-2.329.47-4.355 1.209-6.767C38.923 9.096 49.804 3.702 60.5 3.618c4.97-.034 9.32 1.44 9.487 1.575.034.016.05.083.034.167-.034.084-.1.1-.118.1-.05 0-2.888-1.189-7.17-1.189-3.996 0-6.515 1.675-6.515 3.802 0 1.207.94 2.228 2.317 2.228 2.52 0 2.704-3.065 8.094-3.065 2.317 0 4.366.452 6.784 1.206C85.049 11.976 90.339 22.914 90.44 33.5c.05 5.427-1.478 9.514-1.495 9.547 0 .034-.05.068-.151.034z"/>
            <path d="M79.19 41.892c0-.117-.018-.218-.018-.335-.302-3.45-2.418-6.466-6.196-6.466-2.888 0-5.138 1.926-5.524 4.372 0 .033-.017.084-.017.117-.017.084-.017.168-.034.252v.586c0 .134.017.268.034.402s.034.251.05.368c.336 1.826 1.579 3.183 3.157 3.183.638 0 1.26-.352 1.31-1.123v-.183c0-.034 0-.068-.017-.101 0-.034-.017-.067-.017-.084-.184-.854-1.225-1.256-1.427-2.429 0-.033-.017-.084-.017-.117 0-.05 0-.084-.017-.134v-.352c.084-1.189 1.21-1.993 2.318-1.993 1.897 0 2.938 1.575 3.207 3.417.017.117.034.251.05.369 0 .067.017.134.017.2 0 .134.017.268.017.402v.168c0 .1-.017.201-.017.318-.017.1-.017.201-.033.302-.42 3.015-2.788 5.058-5.542 5.058-3.425 0-5.793-2.864-6.313-6.264-.05-.285-.068-.587-.084-.871-.017-.184-.017-.369-.017-.553 0-.268 0-.536.017-.804.016-.335.05-.653.1-.971.017-.151.05-.285.068-.436.822-4.338 3.98-6.147 5.76-6.616.016 0 4.684.82 5.154-.989 0-.033.017-.067.017-.1 0-.034.017-.067.017-.1V30.15c-.084-1.038-1.612-1.424-2.72-1.474-1.243-.05-2.486.402-2.486.402-.638-.335-1.091-.955-1.377-1.692v-.017c3.41-2.579 5.928-5.075 6.432-7.822.016-.084.033-.184.033-.268.017-.134.034-.285.034-.419v-.435c-.067-1.608-1.176-3.015-3.258-3.015-3.09 0-5.558 3.149-6.397 6.666-.034.118-.05.252-.084.369-.017.134-.05.251-.068.385a5.68 5.68 0 0 0-.1.77 7.255 7.255 0 0 0-.034.604v.402c0 .368 0 .737.017 1.105 0 .084.017.184.017.268.033.268.067.52.15.77-2.417 1.76-4.214 2.865-7.471 4.808 0-.067 0-.167.016-.285.034-.519.118-1.423.353-2.529 1.075-1.172 2.552-2.898 2.636-4.271v-.234c-.033-.604-.403-1.106-1.108-1.106-1.864 0-3.258 2.78-3.627 4.74-.84 1.022-2.519 2.328-3.912 2.328-1.109 0-1.478-1.005-1.579-1.39v-.017c3.325-1.139 7.372-5.46 7.859-9.58 0-.068.016-.135.016-.202s.017-.134.017-.2c0-.135.017-.269.017-.403v-.368c-.1-1.005-.672-2.613-3.14-2.613-3.694 0-6.868 4.824-7.573 9.262-.017.151-.05.302-.067.436-.017.15-.034.285-.05.436-.017.15-.017.301-.034.452 0 .15-.017.301-.017.435-1.276 0-1.864-1.139-2.015-2.227 0-.034 0-.067-.017-.101 0-.067-.017-.15-.017-.218v-.452c0-.201.034-.402.05-.603 0-.05.018-.117.034-.168.118-.753.336-1.406.37-1.708v-.134c-.017-.352-.219-.77-.74-.77-1.107 0-1.863 1.189-2.132 2.747-.016.1-.033.2-.05.318-.017.184-.034.351-.05.536 0 .134-.017.251-.017.385 0 .1 0 .184.017.268l.05.52c.017.15.05.317.084.451.537 2.228 2.267 3.602 4.483 3.77.37 1.758 1.948 3.433 3.896 3.433 1.209 0 2.703-.368 3.728-1.29v.017c-.084.636-.185 1.19-.269 1.742-4.097 2.144-7.07 3.618-9.773 6.03-1.998 1.826-3.19 4.238-3.324 6.214-.017.134-.017.252-.017.369v.268c.1 2.68 1.88 5.125 5.39 5.125 4.282 0 7.54-3.434 9.118-8.174.739-2.227 1.04-5.46 1.226-8.442 4.281-2.412 6.296-3.802 8.53-5.393.285.469.554.837.923 1.105h-.016c-1.73.905-5.525 3.25-6.398 8.409-.05.251-.084.519-.118.804-.016.083-.016.184-.033.268a6.486 6.486 0 0 0-.034.586c-.017.201-.017.402-.017.603 0 .15 0 .302.017.452 0 .151.017.302.034.436.017.218.05.435.067.67.017.134.034.268.067.402.756 4.204 3.946 8.24 9.504 8.24 5.054 0 8.58-3.969 8.9-7.956 0-.066.017-.133.017-.184 0-.134.016-.268.016-.385.034-.184.017-.352.017-.52zm-31.804 6.18c-1.394.067-2.318-.82-2.318-2.311 0-3.986 5.542-7.789 9.74-9.832-.756 5.56-2.653 11.926-7.422 12.143zm7.942-30.166c2.183.72-1.813 6.6-4.886 8.274.017-3.082 3.04-8.894 4.886-8.274zm12.711 6.867c0-3.802 2.586-7.504 3.997-6.8 1.595.804-1.21 4.388-3.997 6.8z"/>
        </g>
    </g>
</svg>
